<svg width="215" height="177" viewBox="0 0 215 177" fill="none" xmlns="http://www.w3.org/2000/svg">
<path d="M155.726 0C158.226 0.125 158.226 0.125 159.226 1.125C159.298 2.64428 159.31 4.16667 159.288 5.6875C159.279 6.51379 159.27 7.34008 159.261 8.19141C159.25 8.82949 159.238 9.46758 159.226 10.125C159.977 10.1093 160.728 10.0936 161.502 10.0774C164.93 10.0147 168.359 9.97591 171.788 9.9375C173.561 9.89979 173.561 9.89979 175.369 9.86133C183.026 9.79698 188.366 10.0995 194.538 14.9375C199.18 20.9538 198.533 28.0428 198.527 35.2773C198.531 36.4508 198.535 37.6243 198.54 38.8334C198.545 41.3104 198.546 43.7874 198.542 46.2644C198.538 50.0457 198.562 53.8262 198.587 57.6074C198.59 60.0182 198.59 62.429 198.589 64.8398C198.598 65.9661 198.608 67.0923 198.617 68.2527C198.572 75.9171 197.851 80.9469 192.851 87C187.803 90.8617 179.966 90.3685 173.886 89.9727C171.581 89.8252 171.581 89.8252 168.226 91.125C165.103 94.8715 162.66 98.9086 160.226 103.125C158.226 106.125 158.226 106.125 155.863 106.637C152.065 105.9 151.186 104.082 149.038 100.938C148.364 99.9746 147.69 99.0116 146.996 98.0195C145.409 95.4249 144.244 92.9817 143.226 90.125C142.248 90.1482 141.269 90.1714 140.261 90.1953C126.139 90.3897 126.139 90.3897 119.226 88.125C118.896 87.135 118.566 86.145 118.226 85.125C117.236 84.795 116.246 84.465 115.226 84.125C113.297 80.4992 112.97 77.3924 112.951 73.3284C112.942 72.1869 112.932 71.0454 112.922 69.8694C112.923 68.6453 112.924 67.4213 112.925 66.1602C112.921 64.8941 112.917 63.628 112.912 62.3236C112.906 59.648 112.905 56.9727 112.91 54.2971C112.916 50.8797 112.899 47.4628 112.876 44.0455C112.858 40.7712 112.861 37.497 112.863 34.2227C112.853 33.0006 112.844 31.7786 112.835 30.5195C112.892 20.0483 112.892 20.0483 116.226 15.125C116.886 15.125 117.546 15.125 118.226 15.125C118.556 14.135 118.886 13.145 119.226 12.125C125.745 9.30053 132.681 9.90096 139.663 10C141.476 10.0135 141.476 10.0135 143.326 10.0273C146.293 10.0508 149.259 10.0836 152.226 10.125C152.214 9.48691 152.203 8.84883 152.191 8.19141C152.182 7.36512 152.173 6.53883 152.163 5.6875C152.152 4.86379 152.14 4.04008 152.128 3.19141C152.273 0.125829 152.648 0.153898 155.726 0ZM121.432 20.7197C119.651 24.2728 119.856 27.7271 119.933 31.6094C119.936 32.3327 119.939 33.056 119.942 33.8013C119.958 36.4927 120 39.1838 120.038 41.875C120.1 47.8975 120.162 53.92 120.226 60.125C143.326 60.125 166.426 60.125 190.226 60.125C191.099 55.759 191.324 51.9524 191.21 47.5586C191.194 46.8427 191.177 46.1268 191.16 45.3892C191.123 43.8822 191.082 42.3752 191.039 40.8684C190.976 38.5667 190.935 36.2651 190.894 33.9629C190.855 32.4948 190.815 31.0267 190.773 29.5586C190.763 28.8731 190.754 28.1876 190.744 27.4813C190.601 23.4709 190.219 20.9124 187.226 18.125C184.07 17.0707 181.113 16.993 177.802 16.9797C176.718 16.9734 175.633 16.967 174.515 16.9604C172.765 16.9587 172.765 16.9587 170.98 16.957C169.777 16.9537 168.573 16.9504 167.334 16.9469C164.789 16.9419 162.245 16.9395 159.7 16.9397C155.807 16.9375 151.914 16.9193 148.021 16.9004C145.549 16.8975 143.077 16.8955 140.605 16.8945C139.44 16.8873 138.275 16.8802 137.075 16.8728C135.988 16.8758 134.9 16.8789 133.779 16.8821C132.348 16.8799 132.348 16.8799 130.888 16.8778C127.127 17.227 124.265 18.2012 121.432 20.7197ZM120.226 68.125C120.19 69.5618 120.164 70.9989 120.142 72.436C120.127 73.2363 120.111 74.0365 120.095 74.861C120.105 77.3297 120.105 77.3297 121.566 80.1484C125.7 83.2201 129.77 82.7907 134.788 82.75C136.686 82.75 138.583 82.7625 140.48 82.7891C141.319 82.7834 142.157 82.7778 143.021 82.772C145.739 83.2071 146.536 83.9998 148.226 86.125C149.835 88.7253 151.325 91.3776 152.824 94.043C153.286 94.73 153.749 95.4171 154.226 96.125C154.886 96.125 155.546 96.125 156.226 96.125C158.051 93.7194 158.051 93.7194 159.851 90.75C160.483 89.7523 161.114 88.7545 161.765 87.7266C163.389 85.3316 163.389 85.3316 163.226 83.125C164.24 83.111 164.24 83.111 165.274 83.0967C168.342 83.0429 171.409 82.9593 174.476 82.875C175.539 82.8608 176.603 82.8466 177.699 82.832C178.723 82.7998 179.748 82.7676 180.804 82.7344C182.218 82.703 182.218 82.703 183.661 82.6709C186.937 81.9738 188.147 80.6994 190.226 78.125C190.948 75.8212 190.948 75.8212 191.038 73.4375C191.107 72.6499 191.175 71.8623 191.246 71.0508C191.451 69.1163 191.451 69.1163 190.226 68.125C188.048 68.0307 185.867 68.0076 183.687 68.0115C183.004 68.0113 182.321 68.0112 181.617 68.011C179.35 68.0117 177.083 68.0195 174.816 68.0273C173.248 68.0292 171.68 68.0306 170.112 68.0316C165.977 68.0355 161.843 68.0453 157.708 68.0563C153.492 68.0665 149.276 68.0711 145.06 68.0762C136.782 68.0869 128.504 68.104 120.226 68.125Z" fill="#10B2FB"/>
<path d="M11.1347 115.457C14.6009 115.551 16.7738 115.775 19.5502 117.922C21.1177 120.275 22.229 122.482 23.226 125.125C23.9066 126.888 23.9066 126.888 24.601 128.688C24.8072 129.492 25.0135 130.296 25.226 131.125C25.886 131.125 26.546 131.125 27.226 131.125C33.661 143.005 33.661 143.005 40.226 155.125C40.2144 152.393 40.2028 149.662 40.1908 146.848C40.183 144.213 40.177 141.579 40.1711 138.945C40.166 137.108 40.1592 135.272 40.1505 133.436C40.1385 130.802 40.1328 128.169 40.1283 125.535C40.1232 124.709 40.118 123.883 40.1127 123.032C40.1125 121.063 40.1639 119.093 40.226 117.125C41.226 116.125 41.226 116.125 43.6947 115.992C45.1952 115.996 45.1952 115.996 46.726 116C47.7263 115.997 48.7266 115.995 49.7572 115.992C52.226 116.125 52.226 116.125 53.226 117.125C53.3249 118.899 53.354 120.678 53.3554 122.455C53.3585 123.593 53.3617 124.731 53.3649 125.903C53.3629 127.142 53.3609 128.38 53.3588 129.656C53.3598 130.918 53.3607 132.179 53.3617 133.479C53.3624 136.152 53.361 138.825 53.3564 141.499C53.3507 144.932 53.3539 148.366 53.3599 151.799C53.3644 155.064 53.3613 158.329 53.3588 161.594C53.3608 162.832 53.3628 164.071 53.3649 165.347C53.3602 167.054 53.3602 167.054 53.3554 168.795C53.3546 169.802 53.3538 170.81 53.353 171.848C53.226 174.125 53.226 174.125 52.226 175.125C38.4556 176.65 38.4556 176.65 34.3354 173.832C33.0252 171.668 32.155 169.479 31.226 167.125C30.0022 164.923 28.7493 162.737 27.476 160.563C25.3722 156.881 25.3722 156.881 23.226 153.125C18.771 145.7 18.771 145.7 14.226 138.125C13.896 150.335 13.566 162.545 13.226 175.125C9.26598 175.125 5.30598 175.125 1.22598 175.125C-0.49225 173.407 0.0984376 171.139 0.0965862 168.795C0.0934341 167.657 0.0902819 166.519 0.0870342 165.347C0.0890585 164.108 0.0910827 162.87 0.0931683 161.594C0.0922116 160.332 0.0912548 159.071 0.0902691 157.771C0.089587 155.098 0.0909455 152.425 0.0956097 149.751C0.101307 146.318 0.0980278 142.884 0.0920372 139.451C0.0875632 136.186 0.090692 132.921 0.0931683 129.656C0.0911441 128.418 0.0891198 127.179 0.0870342 125.903C0.0901864 124.765 0.0933386 123.627 0.0965862 122.455C0.0973818 121.448 0.0981774 120.44 0.0989971 119.402C0.395115 114.092 6.97956 115.538 11.1347 115.457Z" fill="white"/>
<path d="M66.226 116.125C98.1672 116.125 98.1672 116.125 107.226 123.125C114.498 131.02 115.475 138.388 115.378 148.711C115.092 155.133 113.359 161.047 109.226 166.125C96.4437 177.085 83.2682 175.125 66.226 175.125C66.226 155.655 66.226 136.185 66.226 116.125ZM80.226 128.125C80.226 140.005 80.226 151.885 80.226 164.125C89.9088 162.909 89.9088 162.909 97.6635 157.625C100.345 153.334 100.445 149.797 100.538 144.812C100.576 143.517 100.613 142.221 100.652 140.887C100.068 135.728 97.9589 132.7 94.1635 129.25C90.0382 127.469 90.0382 127.469 80.226 128.125Z" fill="white"/>
<path d="M178.351 130.957C181.766 133.084 183.774 135.371 185.226 139.125C185.406 141.832 185.483 144.432 185.456 147.137C185.456 147.906 185.456 148.674 185.455 149.467C185.452 151.086 185.444 152.706 185.432 154.325C185.413 156.814 185.411 159.302 185.412 161.791C185.407 163.365 185.401 164.938 185.394 166.512C185.393 167.26 185.392 168.007 185.391 168.778C185.342 174.009 185.342 174.009 184.226 175.125C181.193 175.494 178.254 175.545 175.226 175.125C173.163 173.125 173.163 173.125 172.226 171.125C170.741 171.62 170.741 171.62 169.226 172.125C169.226 172.785 169.226 173.445 169.226 174.125C163.218 176.59 157.355 177.147 151.163 175.125C150.524 174.795 149.885 174.465 149.226 174.125C149.226 173.465 149.226 172.805 149.226 172.125C148.566 172.125 147.906 172.125 147.226 172.125C143.243 166.827 143.431 161.497 144.226 155.125C146.645 150.734 150.168 148.156 154.929 146.551C158.13 145.957 161.223 146.032 164.476 146.063C166.371 146.076 166.371 146.076 168.304 146.09C169.268 146.101 170.233 146.113 171.226 146.125C170.566 144.475 169.906 142.825 169.226 141.125C163.44 141.02 157.933 141.132 152.226 142.125C148.226 135.5 148.226 135.5 148.226 132.125C158.83 127.98 167.756 125.874 178.351 130.957ZM159.226 157.125C158.233 160.085 158.233 160.085 158.226 163.125C160.096 165.388 160.096 165.388 163.038 165.563C166.396 165.368 166.396 165.368 169.101 162.938C171.445 160.333 171.445 160.333 171.538 157.313C171.435 156.591 171.332 155.869 171.226 155.125C164.802 154.593 164.802 154.593 159.226 157.125Z" fill="white"/>
<path d="M195.226 130.125C199.846 130.125 204.466 130.125 209.226 130.125C209.251 136.373 209.269 142.621 209.281 148.869C209.286 150.996 209.293 153.123 209.301 155.251C209.313 158.301 209.319 161.352 209.324 164.402C209.329 165.36 209.334 166.317 209.339 167.303C209.339 168.184 209.339 169.065 209.34 169.972C209.342 170.752 209.344 171.531 209.346 172.334C209.226 174.125 209.226 174.125 208.226 175.125C206.228 175.224 204.226 175.255 202.226 175.25C201.133 175.253 200.04 175.255 198.913 175.258C196.226 175.125 196.226 175.125 195.226 174.125C195.133 172.743 195.109 171.357 195.112 169.972C195.113 168.651 195.113 168.651 195.113 167.303C195.12 165.867 195.12 165.867 195.128 164.402C195.13 163.427 195.131 162.452 195.133 161.447C195.138 158.319 195.151 155.191 195.163 152.062C195.168 149.947 195.173 147.832 195.177 145.717C195.188 140.52 195.205 135.322 195.226 130.125Z" fill="white"/>
<path d="M98.226 27.125C102.782 27.6806 102.782 27.6806 104.226 29.125C104.479 33.2646 104.411 37.4161 104.413 41.5625C104.426 42.7336 104.438 43.9047 104.451 45.1113C104.453 46.7868 104.453 46.7868 104.456 48.4961C104.461 49.5266 104.465 50.5571 104.469 51.6189C104.226 54.125 104.226 54.125 102.226 56.125C99.101 55.75 99.101 55.75 96.226 55.125C96.1681 50.8334 96.1324 46.5419 96.101 42.25C96.0842 41.0267 96.0675 39.8034 96.0502 38.543C96.0438 37.3764 96.0373 36.2098 96.0307 35.0078C96.0202 33.929 96.0097 32.8502 95.9989 31.7388C96.226 29.125 96.226 29.125 98.226 27.125Z" fill="#22B8FC"/>
<path d="M209.226 27.125C210.876 27.455 212.526 27.785 214.226 28.125C214.226 37.365 214.226 46.605 214.226 56.125C212.246 56.125 210.266 56.125 208.226 56.125C205.581 53.4796 207.04 45.751 207.038 42.1875C207.02 40.3593 207.02 40.3593 207.001 38.4941C206.999 37.3321 206.998 36.17 206.996 34.9727C206.991 33.9002 206.987 32.8278 206.983 31.7229C207.226 29.125 207.226 29.125 209.226 27.125Z" fill="#08B0FC"/>
<path d="M134.226 161.125C136.726 162.75 136.726 162.75 138.226 165.125C138.788 168.063 138.788 168.063 138.226 171.125C136.101 174 136.101 174 133.226 176.125C130.111 176.57 127.945 176.3 124.913 175.563C123.226 174.125 123.226 174.125 122.351 170.813C122.228 167.176 122.47 165.268 124.226 162.125C127.429 160.523 130.75 160.637 134.226 161.125Z" fill="white"/>
<path d="M206.226 112.125C208.726 114.25 208.726 114.25 210.226 117.125C210.162 120.309 209.736 122.274 208.101 125C205.093 126.805 202.647 126.485 199.226 126.125C196.788 125.125 196.788 125.125 195.226 123.125C194.665 120.348 194.665 117.902 195.226 115.125C198.155 111.376 201.733 111.483 206.226 112.125Z" fill="white"/>
<path d="M143.226 36.125C145.226 39.125 145.226 39.125 145.038 42.6875C144.226 46.125 144.226 46.125 141.226 48.125C137.538 47.75 137.538 47.75 134.226 47.125C132.835 43.8014 132.045 41.8672 132.913 38.3125C135.446 34.0917 138.977 35.0402 143.226 36.125Z" fill="#0DB2FC"/>
<path d="M176.226 36.125C178.54 39.5954 178.736 41.0433 178.226 45.125C176.601 47.0625 176.601 47.0625 174.226 48.125C170.553 47.9046 168.856 47.7553 166.226 45.125C165.851 41.6875 165.851 41.6875 166.226 38.125C169.206 34.4571 171.912 34.8122 176.226 36.125Z" fill="#0FB1FB"/>
</svg>
