<svg width="222" height="223" viewBox="0 0 222 223" fill="none" xmlns="http://www.w3.org/2000/svg">
<path d="M1.19896 90.4481C7.3134 90.7172 14.1738 90.5875 20.3406 90.5875L55.3407 90.576C62.2227 90.5684 69.5925 90.4221 76.4262 90.6589C76.2626 92.8868 76.3624 96.3891 76.3628 98.6996L76.367 113.581L76.3772 144.566C76.3788 152.099 76.1074 159.131 77.0126 166.606C77.5105 170.719 74.4455 177.679 71.5668 180.704C66.2438 186.321 59.986 187.568 52.5103 186.727C50.9107 186.547 47.4793 184.4 47.7843 187.353C48.6861 188.587 51.558 190.639 52.9186 191.619C63.1429 198.925 74.6308 204.276 86.8019 207.402C86.5357 201.183 86.7124 193.486 86.7077 187.168L86.7201 149.492C86.7255 143.2 87.0139 134.219 86.5698 128.228C91.379 128.541 97.1457 128.402 102.041 128.402L127.542 128.396L143.373 128.406C146.227 128.407 151.134 128.52 153.836 128.065C153.689 130.929 153.496 137.872 153.959 140.55C150.012 140.483 146.065 140.459 142.117 140.476L113.255 140.5C109.92 140.502 101.797 140.72 98.758 140.389L98.8434 194.52C98.8411 203.062 98.5807 213.352 98.9602 221.794C96.3229 221.69 93.02 221.016 90.3759 220.557C68.5136 216.767 47.7052 205.726 31.9903 190.104C30.1313 188.256 29.5339 187.253 31.5831 185.145C34.0838 182.623 36.6516 180.188 39.1709 177.698C38.5835 176.811 38.0938 175.863 37.711 174.87C35.3933 168.856 35.4206 163.521 38.0466 157.645C42.3795 147.948 54.9075 143.593 64.3531 147.782C64.2476 145.989 64.2491 143.874 64.2748 142.059C64.4604 129.002 63.874 115.656 64.3573 102.625L22.9642 102.614C15.7636 102.612 7.06964 102.382 0 102.738C0.127448 97.8706 0.47181 95.2222 1.19896 90.4481ZM57.1547 174.802C61.6056 174.423 64.9277 170.541 64.6153 166.085C64.3032 161.629 60.4721 158.249 56.012 158.493C53.0661 158.655 50.4358 160.391 49.1297 163.037C47.8233 165.682 48.0437 168.826 49.7061 171.263C51.3684 173.7 54.2152 175.053 57.1547 174.802Z" fill="#238ED3"/>
<path d="M117.873 0C122.602 0.232897 125.705 0.65861 130.318 1.21922C130.427 4.56059 130.216 9.34194 130.211 12.8678L130.208 40.7433C130.209 61.9602 130.505 83.9076 130.17 105.071C137.715 104.477 148.885 104.856 156.842 104.844C163.669 104.834 174.954 104.5 181.487 104.935C181.467 104.189 181.511 103.416 181.222 102.739C178.922 102.558 175.735 102.648 173.377 102.647L159.798 102.646L148.199 102.649C145.812 102.649 142.751 102.564 140.453 102.825C140.746 100.059 140.483 93.464 140.387 90.4933C151.334 90.6074 162.283 90.6378 173.231 90.584C184.748 90.6385 196.265 90.6057 207.782 90.4862C206.543 87.4909 205.89 83.9001 204.932 80.8181C202.707 73.6611 196.757 60.1684 191.827 54.5834C190.863 53.1256 189.779 51.6315 188.77 50.1944C191.073 48.2937 195.438 43.773 197.474 41.526C205.454 49.2704 215.04 69.9524 217.951 80.8462C220.04 88.6666 220.789 94.8426 221.862 102.74C214.335 102.163 206.013 102.932 198.414 102.637C196.682 102.569 195.161 102.685 193.405 102.472C193.582 107.267 193.265 112.271 193.525 117.118C188.365 116.905 182.471 117.036 177.271 117.037L149.231 117.035L129.749 117.033C126.334 117.033 121.315 116.902 118.029 117.211L117.986 40.5457L117.999 14.2159C118 10.2769 118.194 3.78332 117.873 0Z" fill="#238ED3"/>
<path d="M219.738 128.24C220.044 128.156 220.215 128.244 220.521 128.334C220.539 128.372 220.649 128.572 220.645 128.609C215.93 160.02 196.918 188.979 169.787 205.538C166.764 207.383 164.347 209.111 162.903 209.598C162.52 209.251 162.27 208.702 162.347 208.202C162.803 205.262 161.345 197.896 162.97 195.62L163.05 195.51C163.792 194.478 165.73 193.346 166.857 192.612C172.87 188.976 180.038 181.488 185.235 176.76C181.226 176.368 176.681 176.478 172.627 176.482C169.432 176.485 165.428 176.388 162.293 176.65C162.63 160.731 162.197 144.307 162.383 128.292C177.392 128.821 192.718 128.123 207.761 128.411C211.542 128.483 216.006 128.529 219.738 128.24ZM174.525 164.655C176.717 164.436 192.534 164.353 194.225 164.757C195.285 161.742 196.781 160.032 198.153 157.469C200.66 152.693 202.697 148.071 204.418 142.954C204.689 142.15 205.018 141.208 205.356 140.434C200.68 140.768 193.559 140.432 188.627 140.493C185.627 140.53 176.972 140.691 174.439 140.385C174.188 148.074 174.717 156.792 174.525 164.655Z" fill="#238ED3"/>
<path d="M77.6536 4.72461L77.9826 4.72689C78.1703 5.04573 78.1803 16.2714 78.2486 17.7564C76.2335 17.8375 72.488 19.5744 70.5306 20.4538C53.4967 28.108 38.3571 40.6741 28.2048 56.3949C27.1113 58.0886 25.8994 60.1429 24.5267 61.5816L24.4463 61.6647C27.1627 61.3901 35.2946 61.428 37.9811 61.6618C37.3485 57.5801 39.0146 52.1199 41.2635 48.7492C51.1691 33.9027 74.8757 38.186 78.294 56.052C79.5501 62.6166 78.6079 66.5809 74.9688 72.2337C74.7421 72.6494 74.0675 73.4796 73.7243 73.8556C69.7944 78.1621 65.555 80.0772 59.8075 80.331C51.8235 80.684 48.4522 78.8416 42.7262 73.6048C30.3948 73.4736 17.8195 73.6064 5.46826 73.6104C9.66129 63.7521 13.0191 55.8046 19.4905 47.0281C22.0902 43.5025 24.7617 39.5154 27.7502 36.2877C38.1283 25.0791 51.6639 14.9255 65.8359 9.07348C69.2207 7.67579 74.099 5.34813 77.6536 4.72461ZM55.1163 67.6753C56.6005 68.3129 58.2398 68.498 59.8286 68.2072C63.9287 67.4568 66.8132 63.7496 66.5333 59.5909C66.3761 57.2582 65.2307 55.1037 63.3847 53.6687C61.539 52.2338 59.1684 51.6552 56.8689 52.0782C53.3152 52.7321 50.6082 55.6355 50.2048 59.2265C49.8013 62.8175 51.7962 66.2491 55.1163 67.6753Z" fill="#238ED3"/>
<path d="M139.622 3.51385C157.572 8.32102 175.234 18.0116 188.329 31.3849C189.341 32.419 190.7 33.5383 191.445 34.7615C191.215 36.0834 179.447 47.3979 177.689 49.0569C178.31 50.3057 178.92 51.5721 179.454 52.8632C183.663 63.0234 178.117 75.6018 167.759 79.2989C164.765 80.3679 162.234 80.3003 159.075 80.3457C156.733 80.2712 155.329 80.1065 153.087 79.3122C148.193 77.572 144.197 73.9487 141.987 69.248C133.958 52.1547 149.95 34.5555 168.006 41.2454C169.937 39.4219 172.245 36.6302 174.29 35.0594C171.619 33.4733 167.538 29.8367 164.65 27.9604C156.902 22.9273 148.435 18.9426 139.635 16.2286C139.493 14.356 139.263 5.09698 139.622 3.51385ZM161.353 68.2792C162.127 68.185 162.883 67.9806 163.599 67.6721C166.734 66.3203 168.697 63.1602 168.519 59.7508C168.404 57.5477 167.403 55.4852 165.743 54.0326C164.083 52.5797 161.906 51.8605 159.707 52.0388C156.761 52.2775 154.174 54.0902 152.944 56.7776C151.714 59.4653 152.032 62.6078 153.777 64.9937C155.521 67.3799 158.419 68.6366 161.353 68.2792Z" fill="#238ED3"/>
<path d="M97.7571 0.288474C98.3279 0.170984 98.3649 0.14436 98.9123 0.293639C99.4649 1.24081 99.102 84.9768 99.0983 93.5008L99.0956 108.859C99.0963 111.393 98.9914 115.636 99.3044 117.972C95.7844 117.85 91.8037 117.937 88.249 117.935C87.7055 117.987 87.6401 117.957 87.0978 117.841C86.7447 116.956 86.9478 101.578 86.9453 99.5682L86.9482 34.8561L86.9464 14.5905C86.9462 10.5225 87.0617 6.00772 86.7979 1.99966C90.1369 1.69816 94.382 0.864176 97.7571 0.288474Z" fill="#238ED3"/>
<path d="M117.931 152.876C120.72 153.254 127.257 153.009 130.355 152.99C129.989 158.71 130.203 166.102 130.203 171.963L130.19 205.367C130.18 208.514 130.187 211.662 130.21 214.809C130.235 216.299 130.414 219.119 130.294 220.486L129.947 220.708C127.568 220.948 120.733 222.57 118.447 221.83C117.44 220.342 118.339 160.281 117.931 152.876Z" fill="#238ED3"/>
<path d="M34.2649 113.548C35.0253 113.516 35.7859 113.495 36.5469 113.484C40.1445 113.449 43.2922 114.688 45.8705 117.234C48.5214 119.814 50.0334 123.345 50.0722 127.045C50.0818 130.651 48.6553 134.112 46.1077 136.664C41.4307 141.329 35.9419 140.499 29.889 140.497L16.4822 140.479C11.9471 140.461 7.41199 140.483 2.87736 140.546C2.36718 136.105 1.2409 133.357 0.973572 128.199C4.55884 128.511 9.82719 128.405 13.4894 128.403C19.0757 128.4 24.8859 128.465 30.4534 128.327C30.2414 124.172 30.3501 118.614 30.2734 114.349L34.2649 113.548Z" fill="#238ED3"/>
<path d="M140.605 152.955C144.989 153.075 148.576 153.049 152.959 152.936C152.565 156.498 152.785 165.806 152.782 169.762L152.753 201.645C152.757 204.35 152.895 207.083 152.868 209.781C152.837 212.747 153.522 214.34 150.309 215.297C146.876 216.587 144.334 217.571 140.694 218.31C140.8 216.432 140.663 213.563 140.662 211.59L140.657 196.721L140.605 152.955Z" fill="#238ED3"/>
<path d="M7.46202 151.872C11.0127 152.28 16.4543 151.858 20.3794 152.11C21.3195 153.447 22.1954 155.41 22.9486 156.888C25.4886 161.87 28.488 166.477 31.7863 170.984C32.8109 172.384 34.8213 173.998 35.0078 175.694C34.6642 176.309 31.4744 179.585 30.8229 180.281C29.4558 181.686 28.0415 183.045 26.5824 184.355C26.4492 184.198 26.3168 184.04 26.1856 183.881C19.0823 175.277 12.7213 165.81 8.47762 155.384C8.0279 154.28 7.34681 153.078 7.46202 151.872Z" fill="#238ED3"/>
</svg>
