<?xml version="1.0" encoding="UTF-8"?>
<svg version="1.1" xmlns="http://www.w3.org/2000/svg" width="429" height="405">
<path d="M0 0 C1.60332791 -0.08121924 3.20784026 -0.13929134 4.8125 -0.1875 C6.15248047 -0.23970703 6.15248047 -0.23970703 7.51953125 -0.29296875 C10 0 10 0 11.82421875 1.32421875 C13 3 13 3 13 6 C13.66 6 14.32 6 15 6 C15 14.91 15 23.82 15 33 C42.72 33 70.44 33 99 33 C99.33 33.66 99.66 34.32 100 35 C101.89533342 35.46523063 101.89533342 35.46523063 104.0625 35.625 C106.0115625 35.810625 106.0115625 35.810625 108 36 C108.33 36.99 108.66 37.98 109 39 C109.99 39 110.98 39 112 39 C112 39.99 112 40.98 112 42 C113.65 42 115.3 42 117 42 C117.33 42.99 117.66 43.98 118 45 C118.99 45.33 119.98 45.66 121 46 C121 46.66 121 47.32 121 48 C121.99 48.33 122.98 48.66 124 49 C124 49.99 124 50.98 124 52 C124.66 52 125.32 52 126 52 C126.33 53.65 126.66 55.3 127 57 C127.99 57.33 128.98 57.66 130 58 C130 60.64 130 63.28 130 66 C130.99 66.33 131.98 66.66 133 67 C133.02333296 89.39147121 133.04098114 111.78294042 133.05181217 134.17442131 C133.05697428 144.57054932 133.06401537 154.9666698 133.07543945 165.36279297 C133.08538888 174.42124694 133.09185405 183.47969544 133.09408849 192.53815472 C133.09539516 197.33705707 133.09847824 202.1359438 133.10573006 206.93484116 C133.11249434 211.44747874 133.11461612 215.96009419 133.11310768 220.47273636 C133.11338382 222.13283152 133.11538654 223.79292739 133.11920547 225.45301819 C133.12414907 227.71194166 133.1229958 229.97078055 133.12025452 232.22970581 C133.12163721 234.12952115 133.12163721 234.12952115 133.12304783 236.0677166 C133 239 133 239 132 241 C131.34 241 130.68 241 130 241 C130 243.31 130 245.62 130 248 C129.01 248 128.02 248 127 248 C127 249.65 127 251.3 127 253 C126.01 253.33 125.02 253.66 124 254 C123.67 254.99 123.34 255.98 123 257 C122.34 257 121.68 257 121 257 C120.67 257.99 120.34 258.98 120 260 C119.34 260 118.68 260 118 260 C117.67 260.99 117.34 261.98 117 263 C116.34 263 115.68 263 115 263 C114.67 263.99 114.34 264.98 114 266 C112.8125 267.6875 112.8125 267.6875 111 269 C107.8125 269.1875 107.8125 269.1875 105 269 C105 269.66 105 270.32 105 271 C101.71480525 272.09506492 99.26336585 272.09960608 95.8125 272.0625 C94.72582031 272.05347656 93.63914062 272.04445313 92.51953125 272.03515625 C91.68808594 272.02355469 90.85664063 272.01195312 90 272 C90 272.66 90 273.32 90 274 C74.49 274 58.98 274 43 274 C42.67 275.32 42.34 276.64 42 278 C41.34 278 40.68 278 40 278 C38.47700477 280.93720508 37.19899698 283.9168649 36 287 C35.34 287 34.68 287 34 287 C33.67 288.65 33.34 290.3 33 292 C32.34 292 31.68 292 31 292 C30.67 293.32 30.34 294.64 30 296 C29.34 296 28.68 296 28 296 C27.67 296.99 27.34 297.98 27 299 C26.34 299 25.68 299 25 299 C25 300.65 25 302.3 25 304 C24.01 304.33 23.02 304.66 22 305 C21.67 305.99 21.34 306.98 21 308 C20.34 308 19.68 308 19 308 C19 309.65 19 311.3 19 313 C18.01 313.33 17.02 313.66 16 314 C15.67 314.99 15.34 315.98 15 317 C14.34 317 13.68 317 13 317 C12.814375 318.2065625 12.814375 318.2065625 12.625 319.4375 C12.41875 320.283125 12.2125 321.12875 12 322 C9.47524538 323.26237731 7.68799534 323.09856404 4.875 323.0625 C3.96492188 323.05347656 3.05484375 323.04445313 2.1171875 323.03515625 C1.41851562 323.02355469 0.71984375 323.01195312 0 323 C-0.495 321.515 -0.495 321.515 -1 320 C-1.99 320 -2.98 320 -4 320 C-4 319.01 -4 318.02 -4 317 C-4.99 316.67 -5.98 316.34 -7 316 C-7 315.01 -7 314.02 -7 313 C-7.66 313 -8.32 313 -9 313 C-9.33 311.35 -9.66 309.7 -10 308 C-10.66 308 -11.32 308 -12 308 C-14.6120831 306.11930017 -14.99468505 305.02464205 -15.6875 301.8125 C-15.790625 300.884375 -15.89375 299.95625 -16 299 C-16.66 299 -17.32 299 -18 299 C-21.11997802 295.69649386 -22 294.67590167 -22 290 C-22.99 289.67 -23.98 289.34 -25 289 C-25 288.34 -25 287.68 -25 287 C-25.66 287 -26.32 287 -27 287 C-27.33 285.02 -27.66 283.04 -28 281 C-28.99 280.67 -29.98 280.34 -31 280 C-31.34289062 279.17113281 -31.68578125 278.34226562 -32.0390625 277.48828125 C-33.70522109 274.84871284 -33.70522109 274.84871284 -36.05371094 274.49755859 C-38.83571676 274.27278797 -41.58388593 274.20387017 -44.375 274.1875 C-45.38981445 274.16236328 -46.40462891 274.13722656 -47.45019531 274.11132812 C-55.44096925 273.93799246 -63.44308052 273.92906736 -71.43505859 274.03588867 C-72.66603271 274.04906128 -72.66603271 274.04906128 -73.921875 274.0625 C-74.63956055 274.07410156 -75.35724609 274.08570313 -76.09667969 274.09765625 C-78 274 -78 274 -81 273 C-83.05893621 272.77674186 -85.12233653 272.59294241 -87.1875 272.4375 C-88.27417969 272.35371094 -89.36085937 272.26992188 -90.48046875 272.18359375 C-91.31191406 272.12300781 -92.14335938 272.06242187 -93 272 C-93.33 271.01 -93.66 270.02 -94 269 C-95.423125 269.0309375 -95.423125 269.0309375 -96.875 269.0625 C-100 269 -100 269 -102 268 C-102 267.34 -102 266.68 -102 266 C-103.32 265.67 -104.64 265.34 -106 265 C-106 264.34 -106 263.68 -106 263 C-106.99 262.67 -107.98 262.34 -109 262 C-109 261.34 -109 260.68 -109 260 C-109.99 259.67 -110.98 259.34 -112 259 C-112 258.34 -112 257.68 -112 257 C-112.99 256.67 -113.98 256.34 -115 256 C-115 255.34 -115 254.68 -115 254 C-115.66 254 -116.32 254 -117 254 C-117.33 252.02 -117.66 250.04 -118 248 C-118.99 247.67 -119.98 247.34 -121 247 C-121 244.03 -121 241.06 -121 238 C-121.66 238 -122.32 238 -123 238 C-123.74910595 233.32652813 -124.12545505 228.8488571 -124.12698364 224.11764526 C-124.12854363 223.46182374 -124.13010362 222.80600222 -124.13171089 222.13030732 C-124.1356708 219.95257073 -124.13255085 217.77490497 -124.12939453 215.59716797 C-124.13075077 214.027913 -124.13253196 212.45865835 -124.13470459 210.8894043 C-124.13925167 206.6416767 -124.13750078 202.39397348 -124.1343255 198.14624548 C-124.13178872 193.69630208 -124.13414304 189.24636072 -124.13571167 184.79641724 C-124.13752913 177.3266767 -124.13513775 169.85694606 -124.13037109 162.38720703 C-124.1249253 153.75355451 -124.12669514 145.1199256 -124.1321975 136.48627365 C-124.13673592 129.06785469 -124.13737572 121.64944285 -124.13475883 114.23102295 C-124.1332006 109.80269173 -124.13298998 105.37437161 -124.13629532 100.94604111 C-124.13918474 96.78458806 -124.13717859 92.62316546 -124.13140106 88.4617157 C-124.1300794 86.93510616 -124.13045752 85.40849405 -124.13266373 83.88188553 C-124.13539842 81.79735163 -124.13196577 79.71291515 -124.12698364 77.62838745 C-124.12660662 76.46219313 -124.12622959 75.2959988 -124.12584114 74.09446526 C-124.01122312 71.27597935 -123.64636899 68.73978545 -123 66 C-122.34 66 -121.68 66 -121 66 C-121 63.36 -121 60.72 -121 58 C-119.515 57.505 -119.515 57.505 -118 57 C-118 56.01 -118 55.02 -118 54 C-117.01 54 -116.02 54 -115 54 C-115 52.35 -115 50.7 -115 49 C-113.515 48.505 -113.515 48.505 -112 48 C-111.67 47.01 -111.34 46.02 -111 45 C-110.34 45 -109.68 45 -109 45 C-109 44.34 -109 43.68 -109 43 C-106.03 42.505 -106.03 42.505 -103 42 C-102.67 41.01 -102.34 40.02 -102 39 C-98.40611604 36.33025763 -95.35503722 35.69284683 -91 35 C-90.505 34.01 -90.505 34.01 -90 33 C-62.28 33 -34.56 33 -6 33 C-6 25.08 -6 17.16 -6 9 C-5.34 9 -4.68 9 -4 9 C-4 7.02 -4 5.04 -4 3 C-3.01 3 -2.02 3 -1 3 C-0.67 2.01 -0.34 1.02 0 0 Z M-90 56 C-90 56.66 -90 57.32 -90 58 C-90.7425 58.061875 -91.485 58.12375 -92.25 58.1875 C-95.87129113 59.25742693 -96.98712115 60.86885512 -99 64 C-99 64.99 -99 65.98 -99 67 C-99.99 67.33 -100.98 67.66 -102 68 C-102 69.98 -102 71.96 -102 74 C-102.66 74 -103.32 74 -104 74 C-104 110.96 -104 147.92 -104 186 C-32.39 186 39.22 186 113 186 C114.25441297 183.49117406 114.12146941 181.81036451 114.11523438 179.0012207 C114.114328 177.38850533 114.114328 177.38850533 114.11340332 175.74320984 C114.10691772 174.5453334 114.10043213 173.34745697 114.09375 172.11328125 C114.09016479 170.8439827 114.08657959 169.57468414 114.08288574 168.266922 C114.01946054 150.2004008 113.76630187 132.13450198 113.53643799 114.06951904 C113.47479763 109.19414871 113.41523467 104.31875298 113.35546875 99.44335938 C113.23895028 89.96221443 113.12022738 80.48109859 113 71 C112.34 71 111.68 71 111 71 C111.061875 70.21625 111.12375 69.4325 111.1875 68.625 C111.125625 67.75875 111.06375 66.8925 111 66 C110.01 65.34 109.02 64.68 108 64 C107.67 63.01 107.34 62.02 107 61 C106.34 61 105.68 61 105 61 C104.67 60.01 104.34 59.02 104 58 C102.35 58 100.7 58 99 58 C99 57.34 99 56.68 99 56 C95.24910178 54.8074991 91.67993431 54.8741447 87.76382446 54.87301636 C87.03368429 54.87145637 86.30354411 54.86989638 85.55127847 54.86828911 C83.10398935 54.8642996 80.65676224 54.86746087 78.20947266 54.87060547 C76.45509301 54.8692505 74.70071366 54.86747002 72.94633484 54.86529541 C68.17978485 54.86073183 63.41325648 54.86250642 58.6467061 54.8656745 C53.65935743 54.86820443 48.67201061 54.86585871 43.68466187 54.86428833 C35.30669828 54.86246815 26.9287435 54.86486862 18.55078125 54.86962891 C8.86691125 54.87506768 -0.81693768 54.87331105 -10.50080717 54.8678025 C-18.81429041 54.86326283 -27.12776731 54.86262512 -35.4412514 54.86524117 C-40.40677461 54.86679969 -45.37228794 54.8670094 -50.33781052 54.86370468 C-55.00810671 54.86081371 -59.67837579 54.86282427 -64.34866905 54.86859894 C-66.06191271 54.8699201 -67.77515866 54.86954335 -69.48840141 54.86733627 C-71.82891737 54.86459939 -74.16934672 54.86803699 -76.50985718 54.87301636 C-77.8191387 54.87339338 -79.12842022 54.87377041 -80.47737694 54.87415886 C-83.74584192 54.99092053 -86.79356544 55.37683533 -90 56 Z M-104 206 C-104 215.24 -104 224.48 -104 234 C-103.34 234 -102.68 234 -102 234 C-102 235.98 -102 237.96 -102 240 C-101.01 240.33 -100.02 240.66 -99 241 C-97.875 242.9375 -97.875 242.9375 -97 245 C-96.67 245.66 -96.34 246.32 -96 247 C-95.01 247 -94.02 247 -93 247 C-93 247.99 -93 248.98 -93 250 C-91.68 250 -90.36 250 -89 250 C-88.67 250.66 -88.34 251.32 -88 252 C-66.55 252.33 -45.1 252.66 -23 253 C-23 253.66 -23 254.32 -23 255 C-22.34 255 -21.68 255 -21 255 C-20.505 256.98 -20.505 256.98 -20 259 C-19.34 259 -18.68 259 -18 259 C-17.505 261.475 -17.505 261.475 -17 264 C-16.34 264 -15.68 264 -15 264 C-14.505 265.98 -14.505 265.98 -14 268 C-13.34 268 -12.68 268 -12 268 C-11.505 270.97 -11.505 270.97 -11 274 C-10.34 274 -9.68 274 -9 274 C-8.67 274.99 -8.34 275.98 -8 277 C-7.34 277 -6.68 277 -6 277 C-5.67 278.98 -5.34 280.96 -5 283 C-4.34 283 -3.68 283 -3 283 C-2.87625 283.804375 -2.7525 284.60875 -2.625 285.4375 C-2.315625 286.7059375 -2.315625 286.7059375 -2 288 C-1.34 288.33 -0.68 288.66 0 289 C0.33 289.99 0.66 290.98 1 292 C2.99665314 293.68538601 2.99665314 293.68538601 5 295 C5.495 293.515 5.495 293.515 6 292 C6.66 292 7.32 292 8 292 C8.495 290.515 8.495 290.515 9 289 C9.515625 288.505 10.03125 288.01 10.5625 287.5 C12.34595268 285.98527194 12.34595268 285.98527194 12 283 C12.66 283 13.32 283 14 283 C14.495 281.515 14.495 281.515 15 280 C15.515625 279.505 16.03125 279.01 16.5625 278.5 C18.34595268 276.98527194 18.34595268 276.98527194 18 274 C18.66 274 19.32 274 20 274 C20.495 272.515 20.495 272.515 21 271 C21.45375 270.566875 21.9075 270.13375 22.375 269.6875 C24.21314234 267.94655906 24.21314234 267.94655906 25.5 265 C26.85635719 262.28728562 27.87844495 261.03315692 30 259 C30.474375 258.13375 30.94875 257.2675 31.4375 256.375 C33 254 33 254 34.7664032 253.35766602 C37.31624053 252.94936038 39.71675582 252.88778644 42.30004883 252.90234375 C43.88738579 252.90729858 43.88738579 252.90729858 45.50679016 252.91235352 C46.64536972 252.92065186 47.78394928 252.9289502 48.95703125 252.9375 C50.13335617 252.94128662 51.30968109 252.94507324 52.52165222 252.94897461 C57.55459839 252.96532042 62.58746344 252.99340238 67.62036133 253.02050781 C71.2950808 253.03862044 74.96978695 253.05069969 78.64453125 253.0625 C79.77703812 253.07079834 80.90954498 253.07909668 82.07637024 253.08764648 C87.49866433 253.10442213 92.66066998 252.97104794 98 252 C98 251.34 98 250.68 98 250 C98.9075 249.938125 99.815 249.87625 100.75 249.8125 C104.77928762 248.80517809 105.84575113 247.47994048 108 244 C108 243.01 108 242.02 108 241 C108.99 241 109.98 241 111 241 C111 239.02 111 237.04 111 235 C111.66 235 112.32 235 113 235 C113 225.43 113 215.86 113 206 C41.39 206 -30.22 206 -104 206 Z " fill="#06B0FC" transform="translate(210,35)"/>
<path d="M0 0 C0.99 0 1.98 0 3 0 C3 8.91 3 17.82 3 27 C30.72 27 58.44 27 87 27 C87.495 27.99 87.495 27.99 88 29 C89.89533342 29.46523063 89.89533342 29.46523063 92.0625 29.625 C93.361875 29.74875 94.66125 29.8725 96 30 C96.495 31.485 96.495 31.485 97 33 C97.99 33 98.98 33 100 33 C100 33.99 100 34.98 100 36 C101.65 36 103.3 36 105 36 C105.33 36.99 105.66 37.98 106 39 C107.485 39.495 107.485 39.495 109 40 C109 40.66 109 41.32 109 42 C110.485 42.495 110.485 42.495 112 43 C112 43.99 112 44.98 112 46 C112.66 46 113.32 46 114 46 C114.495 48.475 114.495 48.475 115 51 C116.485 51.495 116.485 51.495 118 52 C118 54.64 118 57.28 118 60 C119.485 60.495 119.485 60.495 121 61 C121.02333296 83.39147121 121.04098114 105.78294042 121.05181217 128.17442131 C121.05697428 138.57054932 121.06401537 148.9666698 121.07543945 159.36279297 C121.08538888 168.42124694 121.09185405 177.47969544 121.09408849 186.53815472 C121.09539516 191.33705707 121.09847824 196.1359438 121.10573006 200.93484116 C121.11249434 205.44747874 121.11461612 209.96009419 121.11310768 214.47273636 C121.11338382 216.13283152 121.11538654 217.79292739 121.11920547 219.45301819 C121.12414907 221.71194166 121.1229958 223.97078055 121.12025452 226.22970581 C121.12117631 227.49624937 121.1220981 228.76279293 121.12304783 230.0677166 C121 233 121 233 120 235 C119.34 235 118.68 235 118 235 C118 237.31 118 239.62 118 242 C117.01 242 116.02 242 115 242 C115 243.65 115 245.3 115 247 C114.01 247.33 113.02 247.66 112 248 C111.67 248.99 111.34 249.98 111 251 C110.34 251 109.68 251 109 251 C108.67 251.99 108.34 252.98 108 254 C107.34 254 106.68 254 106 254 C105.67 254.99 105.34 255.98 105 257 C104.34 257 103.68 257 103 257 C102.67 257.99 102.34 258.98 102 260 C100.8125 261.6875 100.8125 261.6875 99 263 C95.8125 263.1875 95.8125 263.1875 93 263 C93 263.66 93 264.32 93 265 C89.71480525 266.09506492 87.26336585 266.09960608 83.8125 266.0625 C82.72582031 266.05347656 81.63914062 266.04445313 80.51953125 266.03515625 C79.68808594 266.02355469 78.85664063 266.01195312 78 266 C78 266.66 78 267.32 78 268 C62.49 268 46.98 268 31 268 C30.67 269.32 30.34 270.64 30 272 C29.34 272 28.68 272 28 272 C26.47700477 274.93720508 25.19899698 277.9168649 24 281 C23.34 281 22.68 281 22 281 C21.67 282.32 21.34 283.64 21 285 C20.01 285 19.02 285 18 285 C18 283.35 18 281.7 18 280 C18.99 280 19.98 280 21 280 C21 279.01 21 278.02 21 277 C21.99 277 22.98 277 24 277 C24 275.02 24 273.04 24 271 C24.99 271 25.98 271 27 271 C27 270.01 27 269.02 27 268 C27.99 268 28.98 268 30 268 C30 267.01 30 266.02 30 265 C47.82 265 65.64 265 84 265 C84 264.01 84 263.02 84 262 C86.97 262 89.94 262 93 262 C93 261.01 93 260.02 93 259 C94.98 259 96.96 259 99 259 C99 258.01 99 257.02 99 256 C99.99 256 100.98 256 102 256 C102 255.01 102 254.02 102 253 C102.99 253 103.98 253 105 253 C105 252.01 105 251.02 105 250 C105.99 250 106.98 250 108 250 C108 249.01 108 248.02 108 247 C108.99 247 109.98 247 111 247 C111 246.01 111 245.02 111 244 C111.99 244 112.98 244 114 244 C114 242.02 114 240.04 114 238 C114.99 238 115.98 238 117 238 C117 178.6 117 119.2 117 58 C116.01 58 115.02 58 114 58 C114 56.02 114 54.04 114 52 C113.01 52 112.02 52 111 52 C111 50.02 111 48.04 111 46 C110.01 46 109.02 46 108 46 C108 45.01 108 44.02 108 43 C107.01 43 106.02 43 105 43 C105 42.01 105 41.02 105 40 C104.01 40 103.02 40 102 40 C102 39.01 102 38.02 102 37 C100.02 37 98.04 37 96 37 C96 36.01 96 35.02 96 34 C94.02 34 92.04 34 90 34 C90 33.01 90 32.02 90 31 C60.3 31 30.6 31 0 31 C0 20.77 0 10.54 0 0 Z " fill="#3FC2FD" transform="translate(222,41)"/>
<path d="M0 0 C1.79158489 -0.02696365 3.58328473 -0.04637917 5.375 -0.0625 C6.37273437 -0.07410156 7.37046875 -0.08570312 8.3984375 -0.09765625 C11 0 11 0 13 1 C13 2.65 13 4.3 13 6 C13.99 6 14.98 6 16 6 C16 31.08 16 56.16 16 82 C15.01 82 14.02 82 13 82 C12.67 83.32 12.34 84.64 12 86 C11.34 86 10.68 86 10 86 C9.67 86.99 9.34 87.98 9 89 C6.69 88.67 4.38 88.34 2 88 C2 87.34 2 86.68 2 86 C0.35 85.67 -1.3 85.34 -3 85 C-3 57.94 -3 30.88 -3 3 C-2.34 3 -1.68 3 -1 3 C-0.67 2.01 -0.34 1.02 0 0 Z " fill="#06AFFB" transform="translate(378,119)"/>
<path d="M0 0 C0.79921875 0.02707031 1.5984375 0.05414063 2.421875 0.08203125 C3.02515625 0.11683594 3.6284375 0.15164062 4.25 0.1875 C4.58 1.1775 4.91 2.1675 5.25 3.1875 C5.91 3.1875 6.57 3.1875 7.25 3.1875 C7.58 5.1675 7.91 7.1475 8.25 9.1875 C8.91 9.1875 9.57 9.1875 10.25 9.1875 C10.25 32.2875 10.25 55.3875 10.25 79.1875 C9.59 79.1875 8.93 79.1875 8.25 79.1875 C7.92 81.4975 7.59 83.8075 7.25 86.1875 C6.26 86.1875 5.27 86.1875 4.25 86.1875 C4.25 86.8475 4.25 87.5075 4.25 88.1875 C-2.375 89.3125 -2.375 89.3125 -5.75 88.1875 C-5.75 87.5275 -5.75 86.8675 -5.75 86.1875 C-6.74 85.8575 -7.73 85.5275 -8.75 85.1875 C-8.84259436 74.54791481 -8.91371125 63.90842513 -8.95724869 53.2685194 C-8.97814232 48.32820107 -9.0064923 43.38815796 -9.05175781 38.44799805 C-9.09515233 33.6823232 -9.11912372 28.91691342 -9.12950897 24.15105629 C-9.13691187 22.33091367 -9.15136772 20.51078591 -9.17292023 18.69075584 C-9.20186976 16.14532253 -9.20595963 13.6009908 -9.20410156 11.05541992 C-9.21848267 10.29944519 -9.23286377 9.54347046 -9.24768066 8.7645874 C-9.20729901 3.6672915 -9.20729901 3.6672915 -6.86907959 1.21406555 C-4.38333419 0.00987265 -2.7474512 -0.12121108 0 0 Z " fill="#05AFFC" transform="translate(46.75,118.8125)"/>
<path d="M0 0 C0 0.66 0 1.32 0 2 C1.98 2 3.96 2 6 2 C6.33 2.99 6.66 3.98 7 5 C7.99 5.33 8.98 5.66 10 6 C10 6.66 10 7.32 10 8 C10.99 8.33 11.98 8.66 13 9 C13 10.65 13 12.3 13 14 C13.66 14 14.32 14 15 14 C15 17.3 15 20.6 15 24 C14.34 24 13.68 24 13 24 C13 25.98 13 27.96 13 30 C12.01 30.33 11.02 30.66 10 31 C10 31.66 10 32.32 10 33 C9.01 33 8.02 33 7 33 C6.67 34.32 6.34 35.64 6 37 C0.06 37 -5.88 37 -12 37 C-12.495 35.515 -12.495 35.515 -13 34 C-14.65 33.67 -16.3 33.34 -18 33 C-18.33 31.35 -18.66 29.7 -19 28 C-19.99 27.67 -20.98 27.34 -22 27 C-22 22.05 -22 17.1 -22 12 C-21.01 11.67 -20.02 11.34 -19 11 C-18.67 9.02 -18.34 7.04 -18 5 C-17.01 5 -16.02 5 -15 5 C-15 4.34 -15 3.68 -15 3 C-9.8531808 -0.16727335 -5.841744 -0.35050464 0 0 Z " fill="#08B0FC" transform="translate(168,144)"/>
<path d="M0 0 C3.3 0 6.6 0 10 0 C10 0.66 10 1.32 10 2 C11.65 2 13.3 2 15 2 C15.33 2.99 15.66 3.98 16 5 C16.66 5 17.32 5 18 5 C18.103125 5.639375 18.20625 6.27875 18.3125 6.9375 C18.6528125 7.9584375 18.6528125 7.9584375 19 9 C19.99 9.33 20.98 9.66 22 10 C22.02696009 12.7708983 22.04681952 15.5415345 22.0625 18.3125 C22.07087891 19.09818359 22.07925781 19.88386719 22.08789062 20.69335938 C22.09111328 21.45068359 22.09433594 22.20800781 22.09765625 22.98828125 C22.10289307 23.68477783 22.10812988 24.38127441 22.11352539 25.09887695 C22 27 22 27 21 30 C19.35360035 31.35827971 17.68704193 32.69254251 16 34 C15.67 34.66 15.34 35.32 15 36 C11.34626672 37.21791109 7.93254014 37.26104675 4.125 37.3125 C3.41730469 37.34150391 2.70960938 37.37050781 1.98046875 37.40039062 C-1.74510388 37.44548601 -3.76377234 37.15663613 -6.8984375 35.078125 C-7.59195313 34.39234375 -8.28546875 33.7065625 -9 33 C-9.5775 32.484375 -10.155 31.96875 -10.75 31.4375 C-13.82763048 27.89822495 -13.14835181 23.339316 -13.125 18.9375 C-13.12886719 18.20466797 -13.13273438 17.47183594 -13.13671875 16.71679688 C-13.12668491 11.25336982 -13.12668491 11.25336982 -12 9 C-11.34 9 -10.68 9 -10 9 C-9.896875 8.401875 -9.79375 7.80375 -9.6875 7.1875 C-8.86684202 4.57631553 -8.25738505 3.55681728 -6 2 C-2.8125 1.8125 -2.8125 1.8125 0 2 C0 1.34 0 0.68 0 0 Z " fill="#06B0FC" transform="translate(261,144)"/>
<path d="M0 0 C72.27 0 144.54 0 219 0 C219 1.65 219 3.3 219 5 C190.74122918 4.89289059 162.48248571 4.78015279 134.22376442 4.66066074 C121.10361254 4.60531429 107.98345795 4.55182999 94.86328125 4.50268555 C83.43161318 4.4598611 71.99996525 4.41358755 60.56832826 4.36312145 C54.5118837 4.33650647 48.45544318 4.31165307 42.39897537 4.29092598 C36.70440226 4.27138301 31.00986752 4.24724632 25.3153286 4.21950912 C23.21985125 4.21012626 21.12436547 4.20245545 19.02887535 4.19658089 C16.17876384 4.18834065 13.32874602 4.17406992 10.47866821 4.15821838 C9.64015812 4.15724028 8.80164802 4.15626217 7.93772852 4.15525442 C2.22824242 4.11412121 2.22824242 4.11412121 0 3 C0 2.01 0 1.02 0 0 Z " fill="#3FC2FD" transform="translate(105,237)"/>
<path d="M0 0 C0.66 0 1.32 0 2 0 C2 55.77 2 111.54 2 169 C-2.10790806 164.89209194 -2.12561438 163.37992762 -2.13371277 157.71218872 C-2.13597833 157.05993376 -2.13824388 156.40767879 -2.14057809 155.73565853 C-2.14693131 153.54006317 -2.14608788 151.34452934 -2.14526367 149.14892578 C-2.14825436 147.5787854 -2.15165668 146.00864575 -2.15544128 144.43850708 C-2.16429514 140.16576201 -2.16661999 135.89303696 -2.16725707 131.6202836 C-2.16820519 128.05659741 -2.17188241 124.49291591 -2.17542917 120.92923152 C-2.18357915 112.52264283 -2.18601292 104.11606485 -2.18530273 95.70947266 C-2.18470193 87.03101173 -2.19525306 78.35261295 -2.2110464 69.67416775 C-2.22411277 62.22953756 -2.229487 54.78492771 -2.22884732 47.34028614 C-2.22859205 42.89121435 -2.23145926 38.44219775 -2.24202538 33.99313736 C-2.25169108 29.80874842 -2.25179607 25.62446762 -2.24450874 21.44007492 C-2.24346096 19.90337212 -2.24583721 18.36666264 -2.2518692 16.82997131 C-2.25956505 14.73377906 -2.25496055 12.63796249 -2.24723816 10.54177856 C-2.24778293 9.36816835 -2.24832769 8.19455814 -2.24888897 6.98538399 C-2.00815339 4.09779862 -1.50864979 2.43814646 0 0 Z " fill="#7CD5FD" transform="translate(88,102)"/>
<path d="M0 0 C0.99 0 1.98 0 3 0 C3 8.91 3 17.82 3 27 C30.72 27 58.44 27 87 27 C87.495 27.99 87.495 27.99 88 29 C89.89533342 29.46523063 89.89533342 29.46523063 92.0625 29.625 C93.361875 29.74875 94.66125 29.8725 96 30 C96.495 31.485 96.495 31.485 97 33 C97.99 33 98.98 33 100 33 C100 33.99 100 34.98 100 36 C101.65 36 103.3 36 105 36 C105.33 36.99 105.66 37.98 106 39 C107.485 39.495 107.485 39.495 109 40 C109 40.66 109 41.32 109 42 C110.485 42.495 110.485 42.495 112 43 C112 43.99 112 44.98 112 46 C112.66 46 113.32 46 114 46 C114.495 48.475 114.495 48.475 115 51 C116.485 51.495 116.485 51.495 118 52 C118 54.64 118 57.28 118 60 C119.485 60.495 119.485 60.495 121 61 C121 62.98 121 64.96 121 67 C119.68 67 118.36 67 117 67 C117 64.03 117 61.06 117 58 C116.01 58 115.02 58 114 58 C114 56.02 114 54.04 114 52 C113.01 52 112.02 52 111 52 C111 50.02 111 48.04 111 46 C110.01 46 109.02 46 108 46 C108 45.01 108 44.02 108 43 C107.01 43 106.02 43 105 43 C105 42.01 105 41.02 105 40 C104.01 40 103.02 40 102 40 C102 39.01 102 38.02 102 37 C100.02 37 98.04 37 96 37 C96 36.01 96 35.02 96 34 C94.02 34 92.04 34 90 34 C90 33.01 90 32.02 90 31 C60.3 31 30.6 31 0 31 C0 20.77 0 10.54 0 0 Z " fill="#85D8FD" transform="translate(222,41)"/>
<path d="M0 0 C60.39 0 120.78 0 183 0 C182.67 1.32 182.34 2.64 182 4 C122.27 4 62.54 4 1 4 C0.67 2.68 0.34 1.36 0 0 Z " fill="#BBE9FD" transform="translate(123,87)"/>
<path d="M0 0 C0.99 0 1.98 0 3 0 C3 8.91 3 17.82 3 27 C-26.7 27 -56.4 27 -87 27 C-87 27.99 -87 28.98 -87 30 C-88.98 30 -90.96 30 -93 30 C-93 30.99 -93 31.98 -93 33 C-94.98 33 -96.96 33 -99 33 C-99 33.99 -99 34.98 -99 36 C-99.99 36 -100.98 36 -102 36 C-102 36.99 -102 37.98 -102 39 C-102.99 39 -103.98 39 -105 39 C-105 39.99 -105 40.98 -105 42 C-106.32 42 -107.64 42 -109 42 C-108.67 40.68 -108.34 39.36 -108 38 C-107.34 38 -106.68 38 -106 38 C-105.67 37.01 -105.34 36.02 -105 35 C-104.34 35 -103.68 35 -103 35 C-103 34.34 -103 33.68 -103 33 C-100.03 32.505 -100.03 32.505 -97 32 C-96.67 31.01 -96.34 30.02 -96 29 C-92.40611604 26.33025763 -89.35503722 25.69284683 -85 25 C-84.67 24.34 -84.34 23.68 -84 23 C-56.28 23 -28.56 23 0 23 C0 15.41 0 7.82 0 0 Z " fill="#83D7FD" transform="translate(204,45)"/>
<path d="M0 0 C1.79158489 -0.02696365 3.58328473 -0.04637917 5.375 -0.0625 C6.37273437 -0.07410156 7.37046875 -0.08570312 8.3984375 -0.09765625 C11 0 11 0 13 1 C13 2.65 13 4.3 13 6 C13.99 6 14.98 6 16 6 C16 31.08 16 56.16 16 82 C14.02 82.495 14.02 82.495 12 83 C12 56.93 12 30.86 12 4 C8.04 4 4.08 4 0 4 C0 4.99 0 5.98 0 7 C-0.99 7 -1.98 7 -3 7 C-3 5.68 -3 4.36 -3 3 C-2.34 3 -1.68 3 -1 3 C-0.67 2.01 -0.34 1.02 0 0 Z " fill="#9FE0FE" transform="translate(378,119)"/>
<path d="M0 0 C0.99 0 1.98 0 3 0 C3.495 1.485 3.495 1.485 4 3 C3.01 3.33 2.02 3.66 1 4 C0.67 4.99 0.34 5.98 0 7 C-0.66 7 -1.32 7 -2 7 C-2.33 7.99 -2.66 8.98 -3 10 C-4.1875 11.6875 -4.1875 11.6875 -6 13 C-9.1875 13.1875 -9.1875 13.1875 -12 13 C-12 13.66 -12 14.32 -12 15 C-15.28519475 16.09506492 -17.73663415 16.09960608 -21.1875 16.0625 C-22.81751953 16.04896484 -22.81751953 16.04896484 -24.48046875 16.03515625 C-25.31191406 16.02355469 -26.14335937 16.01195312 -27 16 C-27 16.66 -27 17.32 -27 18 C-42.51 18 -58.02 18 -74 18 C-74.33 19.32 -74.66 20.64 -75 22 C-75.66 22 -76.32 22 -77 22 C-78.52299523 24.93720508 -79.80100302 27.9168649 -81 31 C-81.66 31 -82.32 31 -83 31 C-83.33 32.32 -83.66 33.64 -84 35 C-84.99 35 -85.98 35 -87 35 C-87 33.35 -87 31.7 -87 30 C-86.01 30 -85.02 30 -84 30 C-84 29.01 -84 28.02 -84 27 C-83.01 27 -82.02 27 -81 27 C-81 25.02 -81 23.04 -81 21 C-80.01 21 -79.02 21 -78 21 C-78 20.01 -78 19.02 -78 18 C-77.01 18 -76.02 18 -75 18 C-75 17.01 -75 16.02 -75 15 C-57.18 15 -39.36 15 -21 15 C-21 14.01 -21 13.02 -21 12 C-18.03 12 -15.06 12 -12 12 C-12 11.01 -12 10.02 -12 9 C-10.02 9 -8.04 9 -6 9 C-6 8.01 -6 7.02 -6 6 C-5.01 6 -4.02 6 -3 6 C-3 5.01 -3 4.02 -3 3 C-2.01 3 -1.02 3 0 3 C0 2.01 0 1.02 0 0 Z " fill="#22B9FD" transform="translate(327,291)"/>
<path d="M0 0 C1.32 0 2.64 0 4 0 C4 1.98 4 3.96 4 6 C4.99 6 5.98 6 7 6 C7 7.98 7 9.96 7 12 C7.99 12 8.98 12 10 12 C10 12.99 10 13.98 10 15 C10.99 15 11.98 15 13 15 C13 15.99 13 16.98 13 18 C13.99 18 14.98 18 16 18 C16 18.99 16 19.98 16 21 C16.99 21 17.98 21 19 21 C19 21.99 19 22.98 19 24 C20.98 24 22.96 24 25 24 C25 24.99 25 25.98 25 27 C27.97 27 30.94 27 34 27 C34 27.99 34 28.98 34 30 C52.81 30 71.62 30 91 30 C91 31.65 91 33.3 91 35 C90.43659912 34.84152588 89.87319824 34.68305176 89.29272461 34.51977539 C86.92458504 33.98290294 84.74085165 33.79345558 82.31640625 33.68359375 C80.9392041 33.62075195 80.9392041 33.62075195 79.53417969 33.55664062 C78.55352539 33.51732422 77.57287109 33.47800781 76.5625 33.4375 C75.0470459 33.37272461 75.0470459 33.37272461 73.50097656 33.30664062 C65.51934491 32.99363546 57.55136808 32.92722006 49.56469727 33.03686523 C48.33384399 33.04955444 48.33384399 33.04955444 47.078125 33.0625 C46.36043945 33.07410156 45.64275391 33.08570313 44.90332031 33.09765625 C43 33 43 33 40 32 C37.94106379 31.77674186 35.87766347 31.59294241 33.8125 31.4375 C32.72582031 31.35371094 31.63914062 31.26992188 30.51953125 31.18359375 C29.68808594 31.12300781 28.85664062 31.06242187 28 31 C27.67 30.01 27.34 29.02 27 28 C26.05125 28.020625 25.1025 28.04125 24.125 28.0625 C21 28 21 28 19 27 C19 26.34 19 25.68 19 25 C17.68 24.67 16.36 24.34 15 24 C15 23.34 15 22.68 15 22 C14.01 21.67 13.02 21.34 12 21 C12 20.34 12 19.68 12 19 C11.01 18.67 10.02 18.34 9 18 C9 17.34 9 16.68 9 16 C8.01 15.67 7.02 15.34 6 15 C6 14.34 6 13.68 6 13 C5.34 13 4.68 13 4 13 C3.67 11.02 3.34 9.04 3 7 C2.01 6.67 1.02 6.34 0 6 C0 4.02 0 2.04 0 0 Z " fill="#41C3FD" transform="translate(89,276)"/>
<path d="M0 0 C1.32 0 2.64 0 4 0 C4 0.99 4 1.98 4 3 C2.02 3 0.04 3 -2 3 C-2 3.99 -2 4.98 -2 6 C-23.45 6 -44.9 6 -67 6 C-65 3 -65 3 -63.25335693 2.31959534 C-60.4594958 1.92333988 -57.76930664 1.88064193 -54.94628906 1.88647461 C-53.72532532 1.88655014 -52.50436157 1.88662567 -51.24639893 1.88670349 C-49.27591583 1.89444542 -49.27591583 1.89444542 -47.265625 1.90234375 C-45.9037074 1.90420979 -44.54178912 1.90563282 -43.17987061 1.90663147 C-39.60258111 1.91044197 -36.02533248 1.92025968 -32.44805908 1.93133545 C-28.79480543 1.94158116 -25.14154514 1.94613585 -21.48828125 1.95117188 C-14.32550224 1.96188331 -7.16275686 1.97894206 0 2 C0 1.34 0 0.68 0 0 Z " fill="#7DD5FD" transform="translate(308,285)"/>
<path d="M0 0 C1.32 0 2.64 0 4 0 C4.02333342 21.60916826 4.04098136 43.21833445 4.05181217 64.82751274 C4.05697418 74.86043595 4.06401509 84.89335134 4.07543945 94.92626953 C4.08538917 103.66829722 4.09185412 112.41031926 4.09408849 121.15235245 C4.09539511 125.78358099 4.09847788 130.41479333 4.10573006 135.04601669 C4.1124948 139.40106553 4.11461603 143.75609143 4.11310768 148.11114502 C4.1133838 149.71318817 4.11538624 151.31523204 4.11920547 152.91727066 C4.1241498 155.09737204 4.12299553 157.27738579 4.12025452 159.45748901 C4.12117631 160.67978651 4.1220981 161.90208401 4.12304783 163.16142082 C4 166 4 166 3 168 C2.34 168 1.68 168 1 168 C1 170.31 1 172.62 1 175 C0.01 175 -0.98 175 -2 175 C-2 176.65 -2 178.3 -2 180 C-2.99 180.33 -3.98 180.66 -5 181 C-5.33 181.99 -5.66 182.98 -6 184 C-6.99 184.33 -7.98 184.66 -9 185 C-9 183.35 -9 181.7 -9 180 C-8.01 180 -7.02 180 -6 180 C-6 179.01 -6 178.02 -6 177 C-5.01 177 -4.02 177 -3 177 C-3 175.02 -3 173.04 -3 171 C-2.01 171 -1.02 171 0 171 C0 166.05 0 161.1 0 156 C0.99 156 1.98 156 3 156 C3 105.51 3 55.02 3 3 C2.01 3 1.02 3 0 3 C0 2.01 0 1.02 0 0 Z " fill="#4FC7FD" transform="translate(339,108)"/>
<path d="M0 0 C7.7412852 -0.02535676 15.48255969 -0.04286976 23.22387695 -0.05493164 C25.85734457 -0.05996013 28.49080939 -0.06678375 31.12426758 -0.07543945 C34.90967498 -0.08756988 38.69504546 -0.09324318 42.48046875 -0.09765625 C43.65772018 -0.10281754 44.83497162 -0.10797882 46.04789734 -0.11329651 C47.69904289 -0.11340981 47.69904289 -0.11340981 49.38354492 -0.11352539 C50.34951096 -0.115746 51.31547699 -0.11796661 52.31071472 -0.12025452 C54.9718515 -0.00125869 57.40726491 0.40531032 60 1 C60 1.66 60 2.32 60 3 C60.66 3 61.32 3 62 3 C62.495 4.98 62.495 4.98 63 7 C61.68 7 60.36 7 59 7 C59 6.01 59 5.02 59 4 C39.2 4 19.4 4 -1 4 C-0.67 2.68 -0.34 1.36 0 0 Z " fill="#82D7FD" transform="translate(127,287)"/>
<path d="M0 0 C26.07 0 52.14 0 79 0 C78.67 1.32 78.34 2.64 78 4 C54.57 3.67 31.14 3.34 7 3 C7 2.67 7 2.34 7 2 C4.69 1.67 2.38 1.34 0 1 C0 0.67 0 0.34 0 0 Z " fill="#58C9FB" transform="translate(227,87)"/>
<path d="M0 0 C0.79921875 0.02707031 1.5984375 0.05414063 2.421875 0.08203125 C3.02515625 0.11683594 3.6284375 0.15164062 4.25 0.1875 C4.58 1.1775 4.91 2.1675 5.25 3.1875 C5.91 3.5175 6.57 3.8475 7.25 4.1875 C3.29 4.1875 -0.67 4.1875 -4.75 4.1875 C-4.75 5.1775 -4.75 6.1675 -4.75 7.1875 C-5.74 7.1875 -6.73 7.1875 -7.75 7.1875 C-7.75 31.9375 -7.75 56.6875 -7.75 82.1875 C-6.76 82.1875 -5.77 82.1875 -4.75 82.1875 C-4.75 83.1775 -4.75 84.1675 -4.75 85.1875 C-1.78 85.1875 1.19 85.1875 4.25 85.1875 C4.25 84.1975 4.25 83.2075 4.25 82.1875 C5.24 82.1875 6.23 82.1875 7.25 82.1875 C7.25 83.5075 7.25 84.8275 7.25 86.1875 C6.26 86.1875 5.27 86.1875 4.25 86.1875 C4.25 86.8475 4.25 87.5075 4.25 88.1875 C-2.375 89.3125 -2.375 89.3125 -5.75 88.1875 C-5.75 87.5275 -5.75 86.8675 -5.75 86.1875 C-6.74 85.8575 -7.73 85.5275 -8.75 85.1875 C-8.84259436 74.54791481 -8.91371125 63.90842513 -8.95724869 53.2685194 C-8.97814232 48.32820107 -9.0064923 43.38815796 -9.05175781 38.44799805 C-9.09515233 33.6823232 -9.11912372 28.91691342 -9.12950897 24.15105629 C-9.13691187 22.33091367 -9.15136772 20.51078591 -9.17292023 18.69075584 C-9.20186976 16.14532253 -9.20595963 13.6009908 -9.20410156 11.05541992 C-9.21848267 10.29944519 -9.23286377 9.54347046 -9.24768066 8.7645874 C-9.20729901 3.6672915 -9.20729901 3.6672915 -6.86907959 1.21406555 C-4.38333419 0.00987265 -2.7474512 -0.12121108 0 0 Z " fill="#22B8FB" transform="translate(46.75,118.8125)"/>
<path d="M0 0 C0 0.66 0 1.32 0 2 C1.98 2 3.96 2 6 2 C6.33 2.99 6.66 3.98 7 5 C7.99 5.33 8.98 5.66 10 6 C10 6.66 10 7.32 10 8 C10.99 8.33 11.98 8.66 13 9 C12.67 10.32 12.34 11.64 12 13 C11.01 12.67 10.02 12.34 9 12 C9 11.01 9 10.02 9 9 C8.01 9 7.02 9 6 9 C6 8.01 6 7.02 6 6 C5.01 6 4.02 6 3 6 C3 5.01 3 4.02 3 3 C-0.96 3 -4.92 3 -9 3 C-9 3.99 -9 4.98 -9 6 C-10.98 6 -12.96 6 -15 6 C-15 6.99 -15 7.98 -15 9 C-15.99 9 -16.98 9 -18 9 C-18 15.27 -18 21.54 -18 28 C-19.32 27.67 -20.64 27.34 -22 27 C-22 22.05 -22 17.1 -22 12 C-21.01 11.67 -20.02 11.34 -19 11 C-18.67 9.02 -18.34 7.04 -18 5 C-17.01 5 -16.02 5 -15 5 C-15 4.34 -15 3.68 -15 3 C-9.8531808 -0.16727335 -5.841744 -0.35050464 0 0 Z " fill="#67CFFD" transform="translate(168,144)"/>
<path d="M0 0 C2.31 0 4.62 0 7 0 C7.33 0.99 7.66 1.98 8 3 C8.99 3 9.98 3 11 3 C11 3.99 11 4.98 11 6 C12.65 6 14.3 6 16 6 C16.33 6.99 16.66 7.98 17 9 C17.99 9.33 18.98 9.66 20 10 C20 10.66 20 11.32 20 12 C20.99 12.33 21.98 12.66 23 13 C23 13.99 23 14.98 23 16 C23.66 16 24.32 16 25 16 C25.33 17.65 25.66 19.3 26 21 C26.99 21.33 27.98 21.66 29 22 C29 24.64 29 27.28 29 30 C29.99 30.33 30.98 30.66 32 31 C32 32.98 32 34.96 32 37 C30.68 37 29.36 37 28 37 C28 34.03 28 31.06 28 28 C27.01 28 26.02 28 25 28 C25 26.02 25 24.04 25 22 C24.01 22 23.02 22 22 22 C22 20.02 22 18.04 22 16 C21.01 16 20.02 16 19 16 C19 15.01 19 14.02 19 13 C18.01 13 17.02 13 16 13 C16 12.01 16 11.02 16 10 C15.01 10 14.02 10 13 10 C13 9.01 13 8.02 13 7 C11.02 7 9.04 7 7 7 C7 6.01 7 5.02 7 4 C5.02 4 3.04 4 1 4 C0.67 2.68 0.34 1.36 0 0 Z " fill="#7CD5FD" transform="translate(311,71)"/>
<path d="M0 0 C17.82 0 35.64 0 54 0 C54 1.65 54 3.3 54 5 C53.43659912 4.84152588 52.87319824 4.68305176 52.29272461 4.51977539 C49.92458504 3.98290294 47.74085165 3.79345558 45.31640625 3.68359375 C44.39851318 3.64177979 43.48062012 3.59996582 42.53491211 3.55688477 C41.06356812 3.49778931 41.06356812 3.49778931 39.5625 3.4375 C38.04378296 3.37163696 38.04378296 3.37163696 36.49438477 3.30444336 C28.60169267 2.99113911 20.72518131 2.93633188 12.82836914 3.12475586 C8.11894297 3.19260154 4.43347386 2.83231092 0 1 C0 0.67 0 0.34 0 0 Z " fill="#29BBFD" transform="translate(126,306)"/>
<path d="M0 0 C0.99 0 1.98 0 3 0 C3 0.66 3 1.32 3 2 C49.035 1.505 49.035 1.505 96 1 C96 0.67 96 0.34 96 0 C101.28 0.33 106.56 0.66 112 1 C111.67 1.66 111.34 2.32 111 3 C56.55 3.495 56.55 3.495 1 4 C0.67 2.68 0.34 1.36 0 0 Z " fill="#9DE0FC" transform="translate(123,87)"/>
<path d="M0 0 C3.3 0 6.6 0 10 0 C10 0.66 10 1.32 10 2 C11.65 2 13.3 2 15 2 C15.33 2.99 15.66 3.98 16 5 C16.66 5 17.32 5 18 5 C18.103125 5.639375 18.20625 6.27875 18.3125 6.9375 C18.6528125 7.9584375 18.6528125 7.9584375 19 9 C19.99 9.33 20.98 9.66 22 10 C22 11.65 22 13.3 22 15 C20.68 15 19.36 15 18 15 C18 13.02 18 11.04 18 9 C17.01 9 16.02 9 15 9 C15 8.01 15 7.02 15 6 C14.01 6 13.02 6 12 6 C12 5.01 12 4.02 12 3 C7.05 3 2.1 3 -3 3 C-3 3.99 -3 4.98 -3 6 C-3.99 6 -4.98 6 -6 6 C-6 6.99 -6 7.98 -6 9 C-6.99 9 -7.98 9 -9 9 C-9 10.98 -9 12.96 -9 15 C-10.32 15 -11.64 15 -13 15 C-12.67 13.02 -12.34 11.04 -12 9 C-11.34 9 -10.68 9 -10 9 C-9.896875 8.401875 -9.79375 7.80375 -9.6875 7.1875 C-8.86684202 4.57631553 -8.25738505 3.55681728 -6 2 C-2.8125 1.8125 -2.8125 1.8125 0 2 C0 1.34 0 0.68 0 0 Z " fill="#8DDCFD" transform="translate(261,144)"/>
<path d="M0 0 C7.7412852 -0.02535676 15.48255969 -0.04286976 23.22387695 -0.05493164 C25.85734457 -0.05996013 28.49080939 -0.06678375 31.12426758 -0.07543945 C34.90967498 -0.08756988 38.69504546 -0.09324318 42.48046875 -0.09765625 C43.65772018 -0.10281754 44.83497162 -0.10797882 46.04789734 -0.11329651 C47.69904289 -0.11340981 47.69904289 -0.11340981 49.38354492 -0.11352539 C50.34951096 -0.115746 51.31547699 -0.11796661 52.31071472 -0.12025452 C54.9718515 -0.00125869 57.40726491 0.40531032 60 1 C60 1.33 60 1.66 60 2 C40.86 2 21.72 2 2 2 C2 2.66 2 3.32 2 4 C1.01 4 0.02 4 -1 4 C-0.67 2.68 -0.34 1.36 0 0 Z " fill="#72D6FD" transform="translate(127,287)"/>
<path d="M0 0 C0.66 0 1.32 0 2 0 C2.07405887 4.66305038 2.12855763 9.32575984 2.16479492 13.98925781 C2.17989814 15.57623251 2.20038223 17.16316537 2.22631836 18.75 C2.26263595 21.02875073 2.27971023 23.30695058 2.29296875 25.5859375 C2.30845261 26.29744965 2.32393646 27.00896179 2.33988953 27.74203491 C2.34057617 29.74365234 2.34057617 29.74365234 2 33 C1.01 33.66 0.02 34.32 -1 35 C-1.0246519 30.17619198 -1.04283693 25.35242033 -1.05493164 20.52856445 C-1.05997174 18.88630536 -1.06680378 17.24405077 -1.07543945 15.60180664 C-1.08751926 13.24624521 -1.09323139 10.89074291 -1.09765625 8.53515625 C-1.10281754 7.79660904 -1.10797882 7.05806183 -1.11329651 6.2971344 C-1.1134925 4.53101912 -1.06194719 2.76502854 -1 1 C-0.67 0.67 -0.34 0.34 0 0 Z " fill="#43C3FB" transform="translate(55,133)"/>
<path d="M0 0 C1.32 0 2.64 0 4 0 C3.67 1.32 3.34 2.64 3 4 C2.34 4 1.68 4 1 4 C0.67 4.99 0.34 5.98 0 7 C-0.66 7 -1.32 7 -2 7 C-2 8.65 -2 10.3 -2 12 C-2.99 12.33 -3.98 12.66 -5 13 C-5.33 13.99 -5.66 14.98 -6 16 C-6.66 16 -7.32 16 -8 16 C-8 17.65 -8 19.3 -8 21 C-8.99 21.33 -9.98 21.66 -11 22 C-11.33 22.99 -11.66 23.98 -12 25 C-12.66 25 -13.32 25 -14 25 C-14.33 26.32 -14.66 27.64 -15 29 C-15.99 29 -16.98 29 -18 29 C-18 28.34 -18 27.68 -18 27 C-17.01 27 -16.02 27 -15 27 C-15 25.02 -15 23.04 -15 21 C-14.01 21 -13.02 21 -12 21 C-12 20.01 -12 19.02 -12 18 C-11.01 18 -10.02 18 -9 18 C-9 16.02 -9 14.04 -9 12 C-8.01 12 -7.02 12 -6 12 C-6 11.01 -6 10.02 -6 9 C-5.01 9 -4.02 9 -3 9 C-3 7.02 -3 5.04 -3 3 C-2.01 3 -1.02 3 0 3 C0 2.01 0 1.02 0 0 Z " fill="#41C3FD" transform="translate(237,327)"/>
<path d="M0 0 C0.99 0 1.98 0 3 0 C3.33 0.99 3.66 1.98 4 3 C3.01 3.33 2.02 3.66 1 4 C0.67 4.99 0.34 5.98 0 7 C-0.66 7 -1.32 7 -2 7 C-2.33 7.99 -2.66 8.98 -3 10 C-4.1875 11.6875 -4.1875 11.6875 -6 13 C-9.1875 13.1875 -9.1875 13.1875 -12 13 C-12 13.66 -12 14.32 -12 15 C-16.455 15.495 -16.455 15.495 -21 16 C-21 14.68 -21 13.36 -21 12 C-18.03 12 -15.06 12 -12 12 C-12 11.01 -12 10.02 -12 9 C-10.02 9 -8.04 9 -6 9 C-6 8.01 -6 7.02 -6 6 C-5.01 6 -4.02 6 -3 6 C-3 5.01 -3 4.02 -3 3 C-2.01 3 -1.02 3 0 3 C0 2.01 0 1.02 0 0 Z " fill="#2AC4FD" transform="translate(327,291)"/>
<path d="M0 0 C-0.33 1.32 -0.66 2.64 -1 4 C-2.98 4 -4.96 4 -7 4 C-7 4.99 -7 5.98 -7 7 C-8.98 7 -10.96 7 -13 7 C-13 7.99 -13 8.98 -13 10 C-13.99 10 -14.98 10 -16 10 C-16 10.99 -16 11.98 -16 13 C-16.99 13 -17.98 13 -19 13 C-19 13.99 -19 14.98 -19 16 C-20.32 16 -21.64 16 -23 16 C-22.67 14.68 -22.34 13.36 -22 12 C-21.34 12 -20.68 12 -20 12 C-19.67 11.01 -19.34 10.02 -19 9 C-18.34 9 -17.68 9 -17 9 C-17 8.34 -17 7.68 -17 7 C-15.02 6.67 -13.04 6.34 -11 6 C-10.67 5.01 -10.34 4.02 -10 3 C-6.58517997 0.43888497 -4.25191465 -0.36444983 0 0 Z " fill="#6ED4FD" transform="translate(118,71)"/>
<path d="M0 0 C1.32 0.33 2.64 0.66 4 1 C4 1.66 4 2.32 4 3 C3.01 3 2.02 3 1 3 C1 4.98 1 6.96 1 9 C0.01 9 -0.98 9 -2 9 C-2 9.99 -2 10.98 -2 12 C-2.99 12 -3.98 12 -5 12 C-5 12.99 -5 13.98 -5 15 C-5.99 15 -6.98 15 -8 15 C-8.33 15.99 -8.66 16.98 -9 18 C-9 17.34 -9 16.68 -9 16 C-10.65 15.67 -12.3 15.34 -14 15 C-14 14.01 -14 13.02 -14 12 C-14.99 12 -15.98 12 -17 12 C-16.67 11.01 -16.34 10.02 -16 9 C-13.69 10.65 -11.38 12.3 -9 14 C-8.67 13.34 -8.34 12.68 -8 12 C-7.34 12 -6.68 12 -6 12 C-5.67 10.68 -5.34 9.36 -5 8 C-4.34 8 -3.68 8 -3 8 C-2.67 6.35 -2.34 4.7 -2 3 C-1.34 3 -0.68 3 0 3 C0 2.01 0 1.02 0 0 Z " fill="#3DC1FC" transform="translate(224,315)"/>
<path d="M0 0 C0.99 0 1.98 0 3 0 C3.33 1.65 3.66 3.3 4 5 C4.99 5.33 5.98 5.66 7 6 C7 8.64 7 11.28 7 14 C7.99 14.33 8.98 14.66 10 15 C10 16.98 10 18.96 10 21 C8.68 21 7.36 21 6 21 C6 18.03 6 15.06 6 12 C5.01 12 4.02 12 3 12 C3 10.02 3 8.04 3 6 C2.01 6 1.02 6 0 6 C0 4.02 0 2.04 0 0 Z " fill="#61CCFD" transform="translate(333,87)"/>
<path d="M0 0 C1.32 0 2.64 0 4 0 C4 0.99 4 1.98 4 3 C5.98 3 7.96 3 10 3 C10 3.99 10 4.98 10 6 C12.97 6 15.94 6 19 6 C19 6.99 19 7.98 19 9 C19.99 9.33 20.98 9.66 22 10 C19.03 10 16.06 10 13 10 C12.67 9.01 12.34 8.02 12 7 C11.05125 7.020625 10.1025 7.04125 9.125 7.0625 C6 7 6 7 4 6 C4 5.34 4 4.68 4 4 C2.68 3.67 1.36 3.34 0 3 C0 2.01 0 1.02 0 0 Z " fill="#52C8FD" transform="translate(104,297)"/>
<path d="M0 0 C1.32 0 2.64 0 4 0 C4 0.99 4 1.98 4 3 C2.02 3 0.04 3 -2 3 C-2 3.99 -2 4.98 -2 6 C-3.98 6 -5.96 6 -8 6 C-8 5.34 -8 4.68 -8 4 C-8.76183594 4.01160156 -9.52367187 4.02320313 -10.30859375 4.03515625 C-16.63840322 4.09047294 -22.72555549 3.8365926 -29 3 C-29 2.67 -29 2.34 -29 2 C-19.43 2 -9.86 2 0 2 C0 1.34 0 0.68 0 0 Z " fill="#73D5FD" transform="translate(308,285)"/>
<path d="M0 0 C0.99 0 1.98 0 3 0 C3 7.92 3 15.84 3 24 C1 23 1 23 0.38110352 21.22167969 C-0.01444158 18.91581142 -0.11345788 16.7917669 -0.09765625 14.453125 C-0.09443359 13.60878906 -0.09121094 12.76445313 -0.08789062 11.89453125 C-0.07951172 11.02183594 -0.07113281 10.14914063 -0.0625 9.25 C-0.05798828 8.36183594 -0.05347656 7.47367188 -0.04882812 6.55859375 C-0.037074 4.37232671 -0.02064249 2.18619821 0 0 Z " fill="#BCE9FD" transform="translate(204,45)"/>
<path d="M0 0 C0.33 0 0.66 0 1 0 C1 1.98 1 3.96 1 6 C0.01 6 -0.98 6 -2 6 C-2 7.98 -2 9.96 -2 12 C-2.99 12 -3.98 12 -5 12 C-5 12.99 -5 13.98 -5 15 C-5.99 15 -6.98 15 -8 15 C-8 16.98 -8 18.96 -8 21 C-8.66 21 -9.32 21 -10 21 C-9.505 16.545 -9.505 16.545 -9 12 C-8.01 11.67 -7.02 11.34 -6 11 C-5.26919734 9.02253397 -4.60578253 7.01927511 -4 5 C-3.34 4.01 -2.68 3.02 -2 2 C-1.34 2 -0.68 2 0 2 C0 1.34 0 0.68 0 0 Z " fill="#2EBDFC" transform="translate(239,294)"/>
<path d="M0 0 C1.32 0.33 2.64 0.66 4 1 C3.67 1.99 3.34 2.98 3 4 C2.34 4 1.68 4 1 4 C-0.52299523 6.93720508 -1.80100302 9.9168649 -3 13 C-3.66 13 -4.32 13 -5 13 C-5.33 14.32 -5.66 15.64 -6 17 C-6.99 17 -7.98 17 -9 17 C-9 15.35 -9 13.7 -9 12 C-8.01 12 -7.02 12 -6 12 C-6 11.01 -6 10.02 -6 9 C-5.01 9 -4.02 9 -3 9 C-3 7.02 -3 5.04 -3 3 C-2.01 3 -1.02 3 0 3 C0 2.01 0 1.02 0 0 Z " fill="#4AC6FC" transform="translate(249,309)"/>
<path d="M0 0 C0.99 0.33 1.98 0.66 3 1 C2.67 1.66 2.34 2.32 2 3 C1.34 3 0.68 3 0 3 C0 5.31 0 7.62 0 10 C-0.99 10 -1.98 10 -3 10 C-3 11.65 -3 13.3 -3 15 C-3.99 15.33 -4.98 15.66 -6 16 C-6.33 16.99 -6.66 17.98 -7 19 C-7.99 19.33 -8.98 19.66 -10 20 C-10 18.35 -10 16.7 -10 15 C-9.01 15 -8.02 15 -7 15 C-7 14.01 -7 13.02 -7 12 C-6.01 12 -5.02 12 -4 12 C-4 10.02 -4 8.04 -4 6 C-3.01 6 -2.02 6 -1 6 C-1.020625 5.195625 -1.04125 4.39125 -1.0625 3.5625 C-1 1 -1 1 0 0 Z " fill="#4AC7FD" transform="translate(340,273)"/>
<path d="M0 0 C1.32 0 2.64 0 4 0 C4 0.99 4 1.98 4 3 C6.97 3 9.94 3 13 3 C13 2.01 13 1.02 13 0 C13.99 0 14.98 0 16 0 C16 1.32 16 2.64 16 4 C15.01 4 14.02 4 13 4 C13 4.66 13 5.32 13 6 C6.375 7.125 6.375 7.125 3 6 C3 5.34 3 4.68 3 4 C2.01 3.67 1.02 3.34 0 3 C0 2.01 0 1.02 0 0 Z " fill="#57CBFD" transform="translate(38,201)"/>
<path d="M0 0 C1.60332791 -0.08121924 3.20784026 -0.13929134 4.8125 -0.1875 C6.15248047 -0.23970703 6.15248047 -0.23970703 7.51953125 -0.29296875 C10.41647515 0.04918998 11.22555028 0.75393573 13 3 C12.67 3.66 12.34 4.32 12 5 C6.72 4.67 1.44 4.34 -4 4 C-3.01 3.67 -2.02 3.34 -1 3 C-0.67 2.01 -0.34 1.02 0 0 Z " fill="#9BE0FD" transform="translate(210,35)"/>
<path d="M0 0 C1.32 0 2.64 0 4 0 C4 1.98 4 3.96 4 6 C4.99 6 5.98 6 7 6 C7 6.99 7 7.98 7 9 C7.99 9 8.98 9 10 9 C10 10.98 10 12.96 10 15 C10.99 15 11.98 15 13 15 C13 15.66 13 16.32 13 17 C11.68 16.67 10.36 16.34 9 16 C9 15.01 9 14.02 9 13 C8.01 12.67 7.02 12.34 6 12 C6 11.34 6 10.68 6 10 C5.34 10 4.68 10 4 10 C3.67 8.02 3.34 6.04 3 4 C2.01 3.67 1.02 3.34 0 3 C0 2.01 0 1.02 0 0 Z " fill="#3FC1FD" transform="translate(179,312)"/>
<path d="M0 0 C1.32 0 2.64 0 4 0 C3.72995846 3.96060927 3.51428214 5.53714607 0.5 8.25 C-0.325 8.8275 -1.15 9.405 -2 10 C-2.33 10.66 -2.66 11.32 -3 12 C-5.5625 12.625 -5.5625 12.625 -8 13 C-8.33 11.68 -8.66 10.36 -9 9 C-7.02 9 -5.04 9 -3 9 C-3 8.01 -3 7.02 -3 6 C-2.01 6 -1.02 6 0 6 C0 4.02 0 2.04 0 0 Z " fill="#3EC4FD" transform="translate(279,168)"/>
<path d="M0 0 C1.32 0 2.64 0 4 0 C4 4.29 4 8.58 4 13 C2.68 12.67 1.36 12.34 0 12 C0 8.04 0 4.08 0 0 Z " fill="#41C2FD" transform="translate(146,159)"/>
<path d="M0 0 C3.3 0 6.6 0 10 0 C9.67 1.32 9.34 2.64 9 4 C6.03 4 3.06 4 0 4 C0 4.99 0 5.98 0 7 C-0.99 7 -1.98 7 -3 7 C-3 5.68 -3 4.36 -3 3 C-2.34 3 -1.68 3 -1 3 C-0.67 2.01 -0.34 1.02 0 0 Z " fill="#81D8FD" transform="translate(378,119)"/>
<path d="M0 0 C1.32 0 2.64 0 4 0 C4 0.99 4 1.98 4 3 C4.99 3 5.98 3 7 3 C7 3.99 7 4.98 7 6 C7.99 6 8.98 6 10 6 C10 6.99 10 7.98 10 9 C11.98 9 13.96 9 16 9 C16 9.33 16 9.66 16 10 C13.03 10 10.06 10 7 10 C6.67 9.01 6.34 8.02 6 7 C5.01 7 4.02 7 3 7 C3 6.01 3 5.02 3 4 C2.01 3.67 1.02 3.34 0 3 C0 2.01 0 1.02 0 0 Z " fill="#36BFFC" transform="translate(203,348)"/>
<path d="M0 0 C0.99 0 1.98 0 3 0 C3.33 0.99 3.66 1.98 4 3 C4.845625 3.845625 5.69125 4.69125 6.5625 5.5625 C7.366875 6.366875 8.17125 7.17125 9 8 C9 8.66 9 9.32 9 10 C9.99 10 10.98 10 12 10 C12 10.99 12 11.98 12 13 C10.02 13 8.04 13 6 13 C6 11.02 6 9.04 6 7 C5.01 7 4.02 7 3 7 C3 6.01 3 5.02 3 4 C2.01 4 1.02 4 0 4 C0 2.68 0 1.36 0 0 Z " fill="#12B5FC" transform="translate(105,272)"/>
<path d="M0 0 C0.33 0.99 0.66 1.98 1 3 C1.66 3.33 2.32 3.66 3 4 C-4.92 4.495 -4.92 4.495 -13 5 C-13 3 -13 3 -11.5625 1.375 C-7.78022773 -0.65451195 -4.20719164 -0.24272259 0 0 Z " fill="#6ED2FD" transform="translate(51,119)"/>
<path d="M0 0 C4.62 0 9.24 0 14 0 C13.67 1.32 13.34 2.64 13 4 C6.07 3.505 6.07 3.505 -1 3 C-0.67 2.01 -0.34 1.02 0 0 Z " fill="#7ED6FC" transform="translate(292,87)"/>
<path d="M0 0 C1.32 0 2.64 0 4 0 C4 1.32 4 2.64 4 4 C3.01 4 2.02 4 1 4 C1 5.98 1 7.96 1 10 C-0.32 10.33 -1.64 10.66 -3 11 C-3 8.69 -3 6.38 -3 4 C-2.01 3.67 -1.02 3.34 0 3 C0 2.01 0 1.02 0 0 Z " fill="#65CFFD" transform="translate(92,89)"/>
<path d="M0 0 C1.32 0.33 2.64 0.66 4 1 C4 1.66 4 2.32 4 3 C3.01 3 2.02 3 1 3 C1 4.98 1 6.96 1 9 C-1.31 9.66 -3.62 10.32 -6 11 C-5.67 10.01 -5.34 9.02 -5 8 C-4.34 8 -3.68 8 -3 8 C-2.67 6.35 -2.34 4.7 -2 3 C-1.34 3 -0.68 3 0 3 C0 2.01 0 1.02 0 0 Z " fill="#2FBDFC" transform="translate(224,315)"/>
<path d="M0 0 C0.99 0 1.98 0 3 0 C3.33 1.65 3.66 3.3 4 5 C4.66 5 5.32 5 6 5 C6.12375 5.639375 6.2475 6.27875 6.375 6.9375 C6.684375 7.9584375 6.684375 7.9584375 7 9 C7.66 9.33 8.32 9.66 9 10 C6.03 9.505 6.03 9.505 3 9 C3 8.01 3 7.02 3 6 C2.01 6 1.02 6 0 6 C0 4.02 0 2.04 0 0 Z " fill="#34C2FC" transform="translate(189,294)"/>
<path d="M0 0 C1.32 0 2.64 0 4 0 C3.67 1.32 3.34 2.64 3 4 C2.34 4 1.68 4 1 4 C1 4.66 1 5.32 1 6 C0.01 6 -0.98 6 -2 6 C-2.66 7.32 -3.32 8.64 -4 10 C-4.66 9.67 -5.32 9.34 -6 9 C-6 8.01 -6 7.02 -6 6 C-5.01 6 -4.02 6 -3 6 C-3 5.01 -3 4.02 -3 3 C-2.01 3 -1.02 3 0 3 C0 2.01 0 1.02 0 0 Z " fill="#4DCBFD" transform="translate(177,171)"/>
<path d="M0 0 C3.465 1.485 3.465 1.485 7 3 C7 3.66 7 4.32 7 5 C7.99 5.33 8.98 5.66 10 6 C10 6.99 10 7.98 10 9 C8.68 9 7.36 9 6 9 C6 8.01 6 7.02 6 6 C5.01 6 4.02 6 3 6 C3 5.01 3 4.02 3 3 C2.01 3 1.02 3 0 3 C0 2.01 0 1.02 0 0 Z " fill="#8CDAFD" transform="translate(324,78)"/>
<path d="M0 0 C1.65 0 3.3 0 5 0 C5 0.99 5 1.98 5 3 C5.99 3 6.98 3 8 3 C8 4.65 8 6.3 8 8 C7.01 8.33 6.02 8.66 5 9 C4.67 7.35 4.34 5.7 4 4 C3.34 4 2.68 4 2 4 C1.34 2.68 0.68 1.36 0 0 Z " fill="#36BEFD" transform="translate(196,339)"/>
<path d="M0 0 C1.98 0 3.96 0 6 0 C5.01 0.33 4.02 0.66 3 1 C3 1.99 3 2.98 3 4 C2.01 4 1.02 4 0 4 C0 4.99 0 5.98 0 7 C-1.32 7 -2.64 7 -4 7 C-3.67 5.68 -3.34 4.36 -3 3 C-2.34 3 -1.68 3 -1 3 C-0.67 2.01 -0.34 1.02 0 0 Z " fill="#80D9FD" transform="translate(99,80)"/>
<path d="M0 0 C1.65 0 3.3 0 5 0 C5 0.99 5 1.98 5 3 C5.99 3 6.98 3 8 3 C8 4.65 8 6.3 8 8 C6.68 7.67 5.36 7.34 4 7 C4 6.01 4 5.02 4 4 C3.34 4 2.68 4 2 4 C1.34 2.68 0.68 1.36 0 0 Z " fill="#36BEFC" transform="translate(190,330)"/>
<path d="M0 0 C6.75 -0.125 6.75 -0.125 9 1 C9 1.66 9 2.32 9 3 C4.545 3.495 4.545 3.495 0 4 C0 2.68 0 1.36 0 0 Z " fill="#4AC5FD" transform="translate(306,303)"/>
<path d="M0 0 C0.99 0.33 1.98 0.66 3 1 C3 1.66 3 2.32 3 3 C2.34 3 1.68 3 1 3 C0.67 3.99 0.34 4.98 0 6 C-0.66 6 -1.32 6 -2 6 C-2.33 7.32 -2.66 8.64 -3 10 C-3.99 10 -4.98 10 -6 10 C-6 9.34 -6 8.68 -6 8 C-5.01 8 -4.02 8 -3 8 C-3 6.02 -3 4.04 -3 2 C-2.01 2 -1.02 2 0 2 C0 1.34 0 0.68 0 0 Z " fill="#32BEFD" transform="translate(225,346)"/>
<path d="M0 0 C0.99 0 1.98 0 3 0 C3.33 0.99 3.66 1.98 4 3 C5.65 3 7.3 3 9 3 C8.67 4.32 8.34 5.64 8 7 C5.25851328 6.62952882 3.41406801 6.31412056 1.1875 4.625 C0 3 0 3 0 0 Z " fill="#2BBEFC" transform="translate(252,174)"/>
<path d="M0 0 C0.66 0.33 1.32 0.66 2 1 C1.34 3.97 0.68 6.94 0 10 C-1.32 10 -2.64 10 -4 10 C-3.67 8.02 -3.34 6.04 -3 4 C-2.34 4 -1.68 4 -1 4 C-0.67 2.68 -0.34 1.36 0 0 Z " fill="#4DC8FD" transform="translate(252,149)"/>
<path d="M0 0 C0.99 0 1.98 0 3 0 C3 0.66 3 1.32 3 2 C8.94 2 14.88 2 21 2 C21 2.33 21 2.66 21 3 C14.4 3.33 7.8 3.66 1 4 C0.67 2.68 0.34 1.36 0 0 Z " fill="#74D0FC" transform="translate(123,87)"/>
<path d="M0 0 C3.71888239 0.50712033 6.73454239 1.11608215 10 3 C9.67 3.99 9.34 4.98 9 6 C8.01 6 7.02 6 6 6 C6 5.01 6 4.02 6 3 C4.02 3 2.04 3 0 3 C0 2.01 0 1.02 0 0 Z " fill="#35C2FC" transform="translate(117,285)"/>
<path d="M0 0 C1.32 0 2.64 0 4 0 C4 0.99 4 1.98 4 3 C4.99 3 5.98 3 7 3 C7 3.99 7 4.98 7 6 C7.99 6 8.98 6 10 6 C10 6.66 10 7.32 10 8 C8.68 8 7.36 8 6 8 C6 7.34 6 6.68 6 6 C5.34 6 4.68 6 4 6 C1.875 4.125 1.875 4.125 0 2 C0 1.34 0 0.68 0 0 Z " fill="#34BEFC" transform="translate(311,90)"/>
<path d="M0 0 C1.32 0.33 2.64 0.66 4 1 C4 2.98 4 4.96 4 7 C2.68 7 1.36 7 0 7 C0 4.69 0 2.38 0 0 Z " fill="#88D9FD" transform="translate(339,101)"/>
<path d="M0 0 C1.98 0 3.96 0 6 0 C6 1.32 6 2.64 6 4 C3.36 4 0.72 4 -2 4 C-1.34 2.68 -0.68 1.36 0 0 Z " fill="#B3EAFE" transform="translate(120,68)"/>
<path d="M0 0 C0.99 0 1.98 0 3 0 C3.33 0.99 3.66 1.98 4 3 C3.01 3.33 2.02 3.66 1 4 C0.67 4.99 0.34 5.98 0 7 C-0.99 6.67 -1.98 6.34 -3 6 C-3 5.01 -3 4.02 -3 3 C-2.01 3 -1.02 3 0 3 C0 2.01 0 1.02 0 0 Z " fill="#23BAFC" transform="translate(327,291)"/>
<path d="M0 0 C1.32 0 2.64 0 4 0 C4 0.99 4 1.98 4 3 C2.02 3 0.04 3 -2 3 C-2 3.99 -2 4.98 -2 6 C-2.99 6 -3.98 6 -5 6 C-5 4.68 -5 3.36 -5 2 C-3.35 2 -1.7 2 0 2 C0 1.34 0 0.68 0 0 Z " fill="#44C3FC" transform="translate(308,285)"/>
<path d="M0 0 C0 2.31 0 4.62 0 7 C-1.32 7.33 -2.64 7.66 -4 8 C-4 5.69 -4 3.38 -4 1 C-1 0 -1 0 0 0 Z " fill="#72D2FD" transform="translate(343,266)"/>
<path d="M0 0 C2.31 0.33 4.62 0.66 7 1 C6.67 1.99 6.34 2.98 6 4 C3.69 3.67 1.38 3.34 -1 3 C-0.67 2.01 -0.34 1.02 0 0 Z " fill="#76D4FD" transform="translate(381,204)"/>
<path d="M0 0 C1.65 0 3.3 0 5 0 C5.66 1.32 6.32 2.64 7 4 C4.36 4 1.72 4 -1 4 C-0.67 2.68 -0.34 1.36 0 0 Z " fill="#B0E9FE" transform="translate(304,68)"/>
<path d="M0 0 C0.99 0 1.98 0 3 0 C3 0.99 3 1.98 3 3 C4.65 3 6.3 3 8 3 C8 3.99 8 4.98 8 6 C3.545 5.01 3.545 5.01 -1 4 C-0.67 2.68 -0.34 1.36 0 0 Z " fill="#68CEFD" transform="translate(319,74)"/>
<path d="M0 0 C0.99 0 1.98 0 3 0 C3.33 0.99 3.66 1.98 4 3 C5.49985609 4.66710346 5.49985609 4.66710346 7 6 C5.68 6.33 4.36 6.66 3 7 C3 6.01 3 5.02 3 4 C2.01 4 1.02 4 0 4 C0 2.68 0 1.36 0 0 Z " fill="#23B8FC" transform="translate(105,272)"/>
<path d="M0 0 C1.32 0 2.64 0 4 0 C4 0.99 4 1.98 4 3 C4.66 3 5.32 3 6 3 C6 3.99 6 4.98 6 6 C5.01 6 4.02 6 3 6 C3 5.34 3 4.68 3 4 C2.01 3.67 1.02 3.34 0 3 C0 2.01 0 1.02 0 0 Z " fill="#48C5FD" transform="translate(38,201)"/>
<path d="M0 0 C1.65 0 3.3 0 5 0 C4.01 0.495 4.01 0.495 3 1 C3 1.99 3 2.98 3 4 C2.01 4 1.02 4 0 4 C0 4.99 0 5.98 0 7 C-0.99 6.67 -1.98 6.34 -3 6 C-2.01 4.02 -1.02 2.04 0 0 Z " fill="#71D7FD" transform="translate(255,146)"/>
<path d="M0 0 C1.32 0.33 2.64 0.66 4 1 C4 1.99 4 2.98 4 4 C4.66 4 5.32 4 6 4 C6.33 4.99 6.66 5.98 7 7 C5.68 7 4.36 7 3 7 C3 6.01 3 5.02 3 4 C2.01 4 1.02 4 0 4 C0 2.68 0 1.36 0 0 Z " fill="#43C3FC" transform="translate(195,305)"/>
<path d="M0 0 C0.99 0 1.98 0 3 0 C3 0.99 3 1.98 3 3 C3.99 3 4.98 3 6 3 C6 3.66 6 4.32 6 5 C6.66 5 7.32 5 8 5 C8 5.66 8 6.32 8 7 C7.01 6.67 6.02 6.34 5 6 C5 5.34 5 4.68 5 4 C3.02 4 1.04 4 -1 4 C-0.67 2.68 -0.34 1.36 0 0 Z " fill="#3DC6FD" transform="translate(111,300)"/>
<path d="M0 0 C2.31 0 4.62 0 7 0 C6.67 0.99 6.34 1.98 6 3 C4.35 3.33 2.7 3.66 1 4 C0.67 2.68 0.34 1.36 0 0 Z " fill="#30BCFC" transform="translate(270,177)"/>
<path d="M0 0 C1.32 0 2.64 0 4 0 C3.67 1.32 3.34 2.64 3 4 C1.02 4.33 -0.96 4.66 -3 5 C-3 4.34 -3 3.68 -3 3 C-2.01 3 -1.02 3 0 3 C0 2.01 0 1.02 0 0 Z " fill="#49C5FC" transform="translate(321,297)"/>
<path d="M0 0 C0.99 0.33 1.98 0.66 3 1 C3 2.98 3 4.96 3 7 C2.01 7 1.02 7 0 7 C0 4.69 0 2.38 0 0 Z " fill="#43C3FC" transform="translate(180,160)"/>
<path d="M0 0 C3.465 1.98 3.465 1.98 7 4 C7 4.66 7 5.32 7 6 C5.68 6 4.36 6 3 6 C3 5.01 3 4.02 3 3 C2.01 3 1.02 3 0 3 C0 2.01 0 1.02 0 0 Z " fill="#50C9FD" transform="translate(207,324)"/>
<path d="M0 0 C3.26954202 0.56371414 4.82575883 1.49962266 7 4 C6.67 4.66 6.34 5.32 6 6 C5.01 5.67 4.02 5.34 3 5 C3 4.01 3 3.02 3 2 C2.01 2 1.02 2 0 2 C0 1.34 0 0.68 0 0 Z " fill="#4CC6FC" transform="translate(201,316)"/>
<path d="M0 0 C1.98 0 3.96 0 6 0 C6 0.99 6 1.98 6 3 C4.02 3 2.04 3 0 3 C0 2.01 0 1.02 0 0 Z " fill="#60CDFD" transform="translate(381,120)"/>
<path d="M0 0 C1.32 0.33 2.64 0.66 4 1 C3.67 2.32 3.34 3.64 3 5 C2.01 5 1.02 5 0 5 C0 3.35 0 1.7 0 0 Z " fill="#2EBEFC" transform="translate(240,321)"/>
<path d="M0 0 C0.99 0 1.98 0 3 0 C3 1.32 3 2.64 3 4 C1.02 4 -0.96 4 -3 4 C-2.34 3.67 -1.68 3.34 -1 3 C-0.67 2.01 -0.34 1.02 0 0 Z " fill="#1BB7FC" transform="translate(315,281)"/>
<path d="M0 0 C0.66 0 1.32 0 2 0 C2.33 2.31 2.66 4.62 3 7 C2.01 6.67 1.02 6.34 0 6 C0 4.02 0 2.04 0 0 Z " fill="#33C0FD" transform="translate(89,276)"/>
<path d="M0 0 C0.66 0.33 1.32 0.66 2 1 C2 2.65 2 4.3 2 6 C0.68 6 -0.64 6 -2 6 C-2 5.01 -2 4.02 -2 3 C-1.34 3 -0.68 3 0 3 C0 2.01 0 1.02 0 0 Z " fill="#53CDFD" transform="translate(281,153)"/>
<path d="M0 0 C0.33 0 0.66 0 1 0 C1 1.98 1 3.96 1 6 C-0.32 6 -1.64 6 -3 6 C-2.67 4.68 -2.34 3.36 -2 2 C-1.34 2 -0.68 2 0 2 C0 1.34 0 0.68 0 0 Z " fill="#5ACAFC" transform="translate(149,153)"/>
<path d="M0 0 C1.32 0 2.64 0 4 0 C4 0.99 4 1.98 4 3 C3.01 3 2.02 3 1 3 C1 3.99 1 4.98 1 6 C0.01 5.67 -0.98 5.34 -2 5 C-1.34 5 -0.68 5 0 5 C0 3.35 0 1.7 0 0 Z " fill="#50C7FD" transform="translate(206,39)"/>
</svg>
