<svg width="45" height="45" viewBox="0 0 45 45" fill="none" xmlns="http://www.w3.org/2000/svg">
<path d="M24.1862 1.03417C23.8821 1.16974 23.7199 1.4215 23.6996 1.73137C23.6996 2.07997 23.6996 21.6209 23.7199 23.5575C23.7199 23.9061 38.3162 23.9255 38.6811 23.5769C38.8231 23.4413 38.9244 22.8216 38.9244 22.1244C38.9244 20.9043 38.9244 20.9043 39.4921 20.9043C39.8164 20.9043 40.2421 21.0786 40.4449 21.2916C40.749 21.6209 41.0733 21.679 42.4721 21.679C43.9723 21.679 44.175 21.6402 44.6008 21.1948C45.0062 20.7881 45.0468 20.5944 44.9657 19.5874C44.9049 18.9676 44.7021 17.9993 44.4994 17.4183C43.5466 14.494 43.3033 13.7968 43.0398 13.4482C42.8979 13.2351 42.7762 12.8672 42.7762 12.6348C42.7762 12.3249 42.6546 12.1893 42.3708 12.1893C42.0464 12.1893 41.9653 12.0538 41.9653 11.5309C41.9653 11.0467 41.864 10.853 41.5599 10.7756C41.3369 10.7175 41.1544 10.5432 41.1544 10.3689C41.1544 10.1946 41.0125 10.059 40.8503 10.059C40.6881 10.059 40.5462 9.98154 40.5462 9.86534C40.5462 9.63294 39.411 8.50968 39.1677 8.50968C39.0663 8.50968 38.9244 8.25791 38.8636 7.94804C38.7825 7.61881 38.5392 7.27021 38.2757 7.13465C38.0121 6.99908 37.5256 6.61175 37.1607 6.24378C36.8161 5.89519 36.3903 5.60469 36.2281 5.60469C36.066 5.60469 35.8835 5.43039 35.8227 5.21736C35.7619 5.00432 35.5794 4.83002 35.397 4.83002C35.2145 4.83002 35.0726 4.71382 35.0726 4.55889C35.0726 4.40396 34.7685 4.22966 34.3833 4.17156C33.9981 4.09409 33.5927 3.91979 33.4508 3.76486C33.3089 3.60993 33.0859 3.47436 32.944 3.47436C32.8021 3.47436 32.4574 3.30006 32.1736 3.08703C31.8898 2.874 31.4641 2.6997 31.2411 2.6997C30.9978 2.6997 30.5518 2.5254 30.2274 2.293C29.8422 2.02187 29.4368 1.92503 28.9705 1.96377C28.3015 2.02187 28.2812 2.04123 28.2204 2.95146C28.1393 4.09409 28.7272 4.83002 29.7206 4.83002C30.1869 4.83002 30.3896 4.92686 30.4707 5.21736C30.5518 5.50785 30.7545 5.60469 31.3019 5.60469C31.8087 5.60469 32.0317 5.70152 32.0317 5.89519C32.0317 6.05012 32.3155 6.22442 32.7412 6.30188C33.1264 6.35998 33.4508 6.53428 33.4508 6.66985C33.4508 6.80542 33.613 6.96035 33.836 7.01845C34.2009 7.09591 34.5455 8.04488 34.3225 8.37411C34.2617 8.47094 33.7954 8.52904 33.2683 8.50968C30.714 8.41284 30.4302 8.47094 29.7003 9.18751C29.3152 9.55547 28.9908 10.0009 28.9908 10.1752C28.9908 10.3689 28.8286 10.6787 28.6462 10.8724C28.4637 11.0661 28.2812 11.6664 28.2204 12.2668C28.1393 13.1189 28.2204 13.4288 28.5651 13.8936C28.7881 14.2228 28.9908 14.6102 28.9908 14.7845C28.9908 14.9588 29.1124 15.0943 29.2746 15.0943C29.4368 15.0943 29.6395 15.2686 29.7003 15.4817C29.7612 15.6947 29.9639 15.869 30.1058 15.869C30.268 15.869 30.4707 16.0239 30.5923 16.1982C30.8762 16.7017 33.9779 16.7017 34.3428 16.1982C34.4847 16.0239 34.7077 15.869 34.8293 15.869C34.951 15.869 35.1131 15.6947 35.174 15.4817C35.2348 15.2686 35.4375 15.0943 35.5997 15.0943C35.7619 15.0943 35.8835 14.9588 35.8835 14.8038C35.8835 14.6683 36.0457 14.4552 36.2484 14.339C36.5322 14.1841 36.5931 13.8549 36.5931 12.0538C36.5931 10.0396 36.6133 9.96217 37.0593 9.90407C37.3026 9.86534 37.5053 9.71041 37.5053 9.53611C37.5053 9.36181 37.627 9.28434 37.8094 9.36181C38.0324 9.43927 38.1135 9.34244 38.1135 8.99384C38.1135 8.62588 38.2149 8.50968 38.5392 8.50968C38.8839 8.50968 38.9447 8.60651 38.8839 9.12941C38.8231 9.69104 38.742 9.76851 38.2757 9.76851C37.7283 9.74914 37.5459 9.9428 37.8905 10.1365C37.9716 10.1946 38.1135 10.5044 38.1743 10.8337C38.2554 11.1823 38.4379 11.4147 38.6203 11.4147C38.7825 11.4147 38.9244 11.5502 38.9244 11.7245C38.9244 11.8988 39.1069 12.2474 39.3299 12.5186C39.5529 12.7897 39.7353 13.1189 39.7353 13.2545C39.7353 13.3901 39.8772 13.6031 40.0394 13.7387C40.2016 13.8742 40.3435 14.1841 40.3435 14.4359C40.3435 14.6876 40.526 14.9781 40.749 15.0943C41.0936 15.2686 41.1544 15.501 41.1544 16.6436C41.1544 17.8056 41.0936 17.9993 40.8098 18.0187C40.6071 18.0187 37.85 18.0768 34.6671 18.1155C29.0516 18.1736 28.8894 18.193 28.5448 18.5997C28.3015 18.8708 28.1799 19.3356 28.1799 19.9747V20.9237L27.4298 20.8656L26.6594 20.8075L26.5581 11.0273L26.4567 1.26657L25.8485 1.131C25.5242 1.05354 25.0984 0.956705 24.9363 0.917971C24.7741 0.859871 24.4294 0.917971 24.1862 1.03417ZM33.7143 11.2597C34.1401 11.6471 34.2617 11.9182 34.2617 12.5573C34.2617 13.2932 34.2009 13.4094 33.613 13.6612C33.2481 13.8161 32.7818 14.0485 32.5993 14.1647C32.3358 14.3584 32.1128 14.3003 31.4438 13.8549C30.9978 13.545 30.5721 13.1383 30.5112 12.9446C30.3288 12.4217 30.5923 11.4147 30.9167 11.4147C31.0586 11.4147 31.2208 11.221 31.2816 11.008C31.383 10.64 31.5046 10.6013 32.275 10.6787C32.8426 10.7368 33.3697 10.9499 33.7143 11.2597Z" fill="#238DD2"/>
<path d="M17.5975 1.07294C17.4962 1.15041 17.4354 6.30193 17.4354 12.5186V23.8093H18.226C19.0166 23.8093 19.6451 23.4414 19.6856 22.9766C19.7667 21.1948 19.6045 1.40218 19.5032 1.30534C19.2802 1.09231 17.7597 0.898645 17.5975 1.07294Z" fill="#238DD2"/>
<path d="M13.1375 2.31247C12.8537 2.52551 12.428 2.69981 12.205 2.69981C11.982 2.69981 11.6982 2.816 11.5765 2.97094C11.4346 3.12587 10.8467 3.47447 10.2385 3.78434C9.63036 4.07483 9.12354 4.3847 9.12354 4.48153C9.12354 4.57837 8.90054 4.7333 8.61673 4.83013C8.33291 4.92696 8.10991 5.10126 8.10991 5.1981C8.10991 5.29493 7.94773 5.4305 7.72473 5.50796C7.522 5.56606 7.076 5.85656 6.77191 6.14706C6.44755 6.43756 6.00155 6.80552 5.77855 6.96046C5.55555 7.11539 5.10955 7.63829 4.76491 8.12245C4.44055 8.60662 4.03509 9.07142 3.91346 9.14888C3.77155 9.22635 3.64991 9.40065 3.64991 9.53621C3.64991 9.67178 3.46746 9.88481 3.24446 10.0204C3.02146 10.1559 2.83901 10.4077 2.83901 10.6207C2.83901 10.8144 2.65655 11.1243 2.43355 11.3179C2.21055 11.5116 2.0281 11.8021 2.0281 11.9764C2.0281 12.1507 1.84564 12.538 1.62264 12.8673C1.21719 13.4483 1.11582 14.2036 1.33882 14.7846C1.44019 15.0557 1.94701 15.0944 4.74464 15.0944C7.66391 15.0944 8.06936 15.1332 8.51536 15.4818C8.79918 15.6948 9.18436 15.8691 9.36682 15.8691C9.54927 15.8691 9.79254 16.024 9.89391 16.1983C10.1777 16.6631 13.9079 16.7019 14.2525 16.2371C14.3944 16.0821 14.658 15.8885 14.8607 15.811C15.1648 15.6948 15.2054 15.4043 15.2054 13.3127C15.2054 10.7176 15.104 10.0591 14.6985 10.0591C14.5364 10.0591 14.3539 9.88481 14.2931 9.67178C14.2323 9.45875 14.0701 9.28445 13.9484 9.28445C13.8471 9.28445 13.5227 9.11015 13.2389 8.89712C12.8132 8.56788 12.4077 8.50978 10.9278 8.50978C9.32627 8.50978 9.14382 8.54852 9.02218 8.89712C8.96136 9.11015 8.81945 9.28445 8.71809 9.28445C8.37345 9.28445 7.50173 10.1947 7.50173 10.5626C7.50173 11.0274 6.65027 12.1894 6.30564 12.1894C6.14346 12.1894 5.85964 12.325 5.65691 12.4799C5.35282 12.7704 5.31228 12.7511 5.19064 12.2669C5.02846 11.7053 5.61637 10.4271 6.30564 9.80735C6.50837 9.61368 6.69082 9.38128 6.69082 9.26508C6.69082 8.78092 9.56954 6.57312 10.5832 6.28263C10.8265 6.20516 11.2319 6.01149 11.4549 5.87593C11.6779 5.72099 12.1036 5.6048 12.4077 5.6048C12.7118 5.6048 13.1173 5.4305 13.32 5.23683C13.5227 5.0238 14.0093 4.83013 14.3944 4.7914L15.104 4.7333V3.37764V2.02197L14.3742 1.96387C13.8876 1.92514 13.5024 2.04134 13.1375 2.31247ZM12.1036 11.0274C12.1644 11.2405 12.3469 11.4148 12.4888 11.4148C12.8132 11.4148 12.8537 11.5697 12.7929 12.6542C12.7321 13.5838 12.0834 14.3198 11.313 14.3198C10.7048 14.3198 9.73173 13.5645 9.73173 13.0997C9.73173 12.9447 9.63036 12.7704 9.50873 12.7317C9.18436 12.6349 9.65063 11.0855 10.0966 10.8531C10.2791 10.7369 10.7859 10.6401 11.2116 10.6401C11.8401 10.6401 12.0225 10.7176 12.1036 11.0274Z" fill="#238DD2"/>
<path d="M1.3591 18.1349C0.122468 18.3286 -0.445167 19.7036 0.406286 20.517C0.791468 20.8849 1.1361 20.9043 6.73137 20.943L12.6713 21.0011V25.165V29.3288L12.0631 29.2319C10.8873 29.0577 9.99528 29.1545 9.65064 29.4837C9.44791 29.658 9.20464 29.8129 9.06273 29.8129C8.9411 29.8129 8.53564 30.0066 8.17073 30.239C7.68419 30.5682 7.50173 30.8394 7.50173 31.2073C7.50173 31.5366 7.33955 31.8464 7.09628 31.982C6.52864 32.3306 6.52864 33.6863 7.09628 34.1704C7.6031 34.6159 7.62337 35.1388 7.13682 35.468C6.9341 35.6036 6.7111 35.8747 6.63001 36.049C6.56919 36.2427 6.36646 36.3976 6.18401 36.3976C5.96101 36.3976 5.87992 36.6106 5.87992 37.1916C5.87992 37.8307 6.00155 38.0825 6.54892 38.5473C6.89355 38.8571 7.40037 39.167 7.66391 39.2445C7.90719 39.3026 8.21128 39.5156 8.33291 39.7093C8.43428 39.9223 8.65728 40.0772 8.81946 40.0772C8.98164 40.0772 9.12355 40.2128 9.12355 40.3677C9.12355 40.5227 9.306 40.6582 9.50873 40.6582C10.1169 40.6582 10.5426 40.8713 10.5426 41.1618C10.5426 41.3167 10.7454 41.4329 11.0292 41.4329C11.7387 41.4329 12.1645 41.6266 12.1645 41.9364C12.1645 42.1107 12.4077 42.2076 12.874 42.2076C13.2795 42.2076 13.6241 42.3238 13.7457 42.5174C13.8471 42.6724 14.2931 42.866 14.7594 42.9241C15.2256 42.9822 15.7122 43.1565 15.8338 43.2921C15.996 43.4858 16.5839 43.5632 17.8611 43.5632C19.6045 43.5632 19.6654 43.5439 19.6654 43.1178C19.6654 42.8854 19.6856 39.4381 19.6856 35.468V28.2249L24.693 28.2636C27.4501 28.283 30.045 28.283 30.4707 28.283L31.2208 28.2636V27.1404C31.2208 26.54 31.1397 25.9203 31.0586 25.7847C30.8356 25.4748 17.9827 25.3393 17.6584 25.6491C17.5165 25.7847 17.4354 28.4186 17.4354 33.2602L17.4151 40.6582H16.7461C16.3609 40.6582 15.9555 40.542 15.8338 40.3871C15.7122 40.2515 15.2256 40.0772 14.7594 40.0191C14.2931 39.961 13.8065 39.7674 13.6646 39.6124C13.543 39.4381 13.1984 39.3026 12.9145 39.3026C12.5902 39.3026 12.3064 39.1476 12.1645 38.9346C12.0428 38.7022 11.6982 38.5279 11.2927 38.4892C10.4413 38.4117 10.4007 37.8695 11.2522 37.792C11.5968 37.7533 11.9212 37.5983 12.0023 37.4628C12.0834 37.3272 12.4888 37.1529 12.874 37.0948C13.2997 37.0173 13.5835 36.843 13.5835 36.6881C13.5835 36.5332 13.766 36.3976 13.989 36.3976C14.2525 36.3976 14.3945 36.262 14.3945 36.0296C14.3945 35.836 14.5769 35.6229 14.7999 35.5648C15.2054 35.468 15.2054 35.2937 15.2054 26.9273C15.2054 20.2458 15.1445 18.3673 14.9621 18.2898C14.5769 18.193 2.00783 18.0381 1.3591 18.1349ZM12.5294 32.1176C12.9145 32.35 12.9348 34.4416 12.5496 34.674C12.3875 34.7708 11.6982 34.8483 11.0292 34.8483H9.79255L9.69118 34.0155C9.63037 33.5507 9.63037 32.9116 9.69118 32.563L9.77228 31.9433H11.0292C11.6982 31.9433 12.3875 32.0207 12.5294 32.1176Z" fill="#238DD2"/>
<path d="M5.90019 23.4608C5.8191 23.7125 5.77855 24.2161 5.8191 24.6034L5.92046 25.3199L3.40665 25.378C1.13611 25.4555 0.87256 25.4942 0.446833 25.8816C-0.080257 26.4045 -0.141075 27.2179 0.325197 27.8376C0.629288 28.2443 0.730651 28.2637 4.4811 28.2637C8.0491 28.2637 8.33292 28.2443 8.7181 27.8763C8.9411 27.6633 9.12355 27.3534 9.12355 27.1985C9.12355 27.0436 9.26546 26.908 9.42764 26.908C9.67091 26.908 9.73173 26.6562 9.73173 25.746C9.73173 25.1069 9.65064 24.584 9.54928 24.584C9.44792 24.584 9.26546 24.3323 9.12355 24.0224C8.86001 23.3639 8.06937 23.0347 6.85301 23.0347C6.22455 23.0347 6.0421 23.1122 5.90019 23.4608Z" fill="#238DD2"/>
<path d="M32.8426 30.3745C32.8426 34.7708 32.8832 35.4099 33.167 35.5067C33.3494 35.5648 34.1603 35.6229 34.9915 35.6229C36.8161 35.6229 36.9377 35.8747 35.4578 36.6687C34.8699 36.9785 34.059 37.5595 33.6333 37.9662C32.8629 38.7022 32.8426 38.7409 32.8426 40.174C32.8426 41.2586 32.9237 41.6653 33.1264 41.7427C33.4305 41.8589 35.0726 41.1424 35.0726 40.8906C35.0726 40.7938 35.4983 40.5226 36.0457 40.2709C36.5728 40.0191 37.6675 39.1863 38.4784 38.3923C39.2893 37.6176 40.0192 36.9785 40.08 36.9785C40.5665 36.9785 43.5871 32.1369 43.5871 31.3235C43.5871 31.1686 43.7291 30.8781 43.8912 30.665C44.0534 30.4714 44.1953 29.9872 44.1953 29.5999C44.1953 29.2319 44.3372 28.7477 44.4994 28.5347C44.8846 28.0505 44.8846 26.6368 44.4994 26.3269C44.3372 26.1914 44.1953 25.959 44.1953 25.8234C44.1953 25.4942 44.8846 25.5329 38.3771 25.4361L32.8426 25.3586V30.3745ZM41.1544 28.922C41.1544 29.29 41.0328 29.6192 40.8706 29.6773C40.7287 29.7354 40.5462 30.0647 40.4652 30.4133C40.4043 30.7619 40.2016 31.1879 40.0597 31.3429C39.8975 31.5172 39.7353 31.8658 39.6948 32.1369C39.634 32.6017 39.5934 32.6211 37.7689 32.6792L35.8835 32.7373L35.843 31.033C35.8227 29.2125 35.8227 28.6315 35.8632 28.3991C35.8632 28.3217 37.0796 28.2636 38.519 28.2636H41.1544V28.922Z" fill="#238DD2"/>
<path d="M1.78482 30.5295C1.31855 30.6457 1.27801 31.8465 1.70373 32.0014C1.86592 32.0595 2.06864 32.4275 2.14973 32.7954C2.21055 33.1828 2.35246 33.4926 2.43355 33.4926C2.53491 33.4926 2.71737 33.8025 2.839 34.1705C2.96064 34.5384 3.20391 34.8483 3.36609 34.8483C3.52828 34.8483 3.64991 35.0226 3.64991 35.2356C3.64991 35.4874 3.79182 35.623 4.05537 35.623C4.31891 35.623 4.46082 35.7585 4.46082 36.0103C4.46082 36.5138 4.98791 36.5138 5.27173 36.0103C5.39337 35.7973 5.59609 35.623 5.738 35.623C5.87991 35.623 6.10291 35.3518 6.26509 35.0226C6.50836 34.4803 6.50836 34.3835 6.20427 34.2286C6.02182 34.1317 5.87991 33.9381 5.87991 33.8025C5.87991 33.6476 5.75827 33.4926 5.59609 33.4345C5.43391 33.3764 5.25146 33.0472 5.17037 32.718C5.08927 32.3887 4.90682 32.0595 4.74464 32.0014C4.58246 31.9433 4.46082 31.7496 4.46082 31.5753C4.44055 30.9362 2.75791 30.2778 1.78482 30.5295Z" fill="#238DD2"/>
<path d="M28.6462 30.5876L28.1799 30.7619V36.8624V42.9435L28.6867 43.2533C29.4165 43.7181 30.268 43.6407 30.8153 43.079L31.2816 42.6142L31.2411 36.6493C31.2208 33.3764 31.1802 30.6844 31.16 30.6651C30.9572 30.5101 28.9908 30.452 28.6462 30.5876Z" fill="#238DD2"/>
<path d="M23.7199 31.7883C23.6996 32.4662 23.6591 35.3712 23.5983 38.2568L23.5172 43.4858L24.2875 43.815C25.3214 44.2604 25.4836 44.2411 26.0513 43.602L26.5378 43.0791L26.5581 36.8237V30.5876H25.139H23.7199V31.7883Z" fill="#238DD2"/>
</svg>
